<?xml version="1.0" encoding="iso-8859-1"?>
<!-- Uploaded to: SVG Repo, www.svgrepo.com, Generator: SVG Repo Mixer Tools -->
<svg height="800px" width="800px" version="1.1" id="Layer_1" xmlns="http://www.w3.org/2000/svg" xmlns:xlink="http://www.w3.org/1999/xlink" 
	 viewBox="0 0 502.4 502.4" xml:space="preserve">
<path style="fill:#CB5A30;" d="M491.6,338L268,114.4c-4.4-4.4-10.8-6.8-16.8-6.8s-12,2.4-16.8,6.8L10.8,338c-9.2,9.2-9.2,24,0,33.2
	l16.4,16.4c9.2,9.2,24,9.2,33.2,0l190.4-190.4L441.6,388c9.2,9.2,24,9.2,33.2,0l16.4-16.4C500.8,362.4,500.8,347.2,491.6,338z"/>
<path style="fill:#E07D46;" d="M243.6,132.8c2-2,4.8-3.2,7.6-2.8c2.8,0,5.2,0.8,7.6,2.8l214.4,214.4c4,4,4,10.4,0,14.4l-7.6,7.6
	c-4,4-10.4,4-14.4,0L268.4,186.4l-16.8-16.8L52,369.2c-4,4-10.4,4-14.4,0l-7.6-7.6c-4-4-4-10.4,0-14.4L41.2,336l20-20L243.6,132.8z"
	/>
<path d="M458.4,398.8c-7.2,0-14.4-2.8-19.6-8L251.2,203.2L63.6,390.8c-5.2,5.2-12,8-19.6,8c-7.2,0-14.4-2.8-19.6-8L8,374.4
	c-5.2-5.2-8-12-8-19.6s2.8-14.4,8-19.6l223.6-223.6c5.2-5.2,12-8,19.6-8l0,0c7.2,0,14.4,2.8,19.6,8l223.6,223.6l0,0
	c5.2,5.2,8,12,8,19.6s-2.8,14.4-8,19.6L478,390.8C472.8,396,465.6,398.8,458.4,398.8z M251.2,193.2c1.2,0,2,0.4,2.8,1.2l190.8,190.8
	c3.6,3.6,8.4,5.6,14,5.6c5.2,0,10-2,14-5.6l16.4-16.4c3.6-3.6,5.6-8.4,5.6-14s-2-10-5.6-14L265.6,117.2c-3.6-3.6-8.4-5.6-14-5.6l0,0
	c-5.2,0-10,2-14,5.6L14,340.8c-3.6,3.6-5.6,8.4-5.6,14c0,5.2,2,10,5.6,14l16.4,16.4c3.6,3.6,8.4,5.6,14,5.6c5.2,0,10-2,14-5.6
	l190.4-190.4C249.2,193.6,250,193.2,251.2,193.2z"/>
<path d="M458.4,376.4c-4,0-7.2-1.6-10-4L251.2,175.2L54.4,372c-5.6,5.6-14.4,5.6-20,0l-7.6-7.6c-2.8-2.8-4-6.4-4-10s1.6-7.2,4-10
	L206,165.2c1.6-1.6,4-1.6,5.6,0s1.6,4,0,5.6L32.4,350c-1.2,1.2-2,2.8-2,4.4s0.8,3.2,2,4.4l7.6,7.6c2.4,2.4,6.4,2.4,8.8,0
	l199.6-199.6c1.6-1.6,4-1.6,5.6,0l200,200c2.4,2.4,6.4,2.4,8.8,0l7.6-7.6c1.2-1.2,2-2.8,2-4.4s-0.8-3.2-2-4.4L256,136
	c-1.2-1.2-2.8-2-4.4-1.6c-2,0-3.6,0.8-4.8,1.6l-11.6,11.6c-1.6,1.6-4,1.6-5.6,0s-1.6-4,0-5.6l11.6-11.6c2.8-2.8,6.4-4,10.4-4
	c3.6,0,7.6,1.6,10,4L476,344.8c2.8,2.8,4,6.4,4,10s-1.6,7.2-4,10l-7.6,7.6C465.6,375.2,462,376.4,458.4,376.4z"/>
</svg>