<!--<svg width="119" height="25" viewBox="0 0 119 25" fill="none" xmlns="http://www.w3.org/2000/svg">
<path d="M103.475 0.291016H2.75425C0.857955 0.291016 0.0263021 2.68377 1.51382 3.85988L10.4995 10.9644C11.5268 11.7767 11.5092 13.3407 10.4639 14.1297L1.76523 20.6946C0.233517 21.8506 1.05106 24.291 2.97003 24.291H103.5C103.928 24.291 104.345 24.1535 104.689 23.8988L117.877 14.1408C118.943 13.3524 118.961 11.7643 117.913 10.9523L104.7 0.7103C104.349 0.438513 103.918 0.291016 103.475 0.291016Z" fill="#676873"/>
</svg>!-->
<svg preserveAspectRatio="none" width="119" height="24" viewBox="0 0 119 24" fill="none" xmlns="http://www.w3.org/2000/svg">
<path d="M103.475 0H2.75425C0.857955 0 0.0263021 2.39275 1.51382 3.56886L10.4995 10.6734C11.5268 11.4857 11.5092 13.0497 10.4639 13.8386L1.76523 20.4036C0.233516 21.5596 1.05106 24 2.97003 24H103.5C103.928 24 104.345 23.8625 104.689 23.6077L117.877 13.8497C118.943 13.0613 118.961 11.4733 117.913 10.6613L104.7 0.419284C104.349 0.147497 103.918 0 103.475 0Z" fill="#676873"/>
</svg>

