<svg width="132" height="20" viewBox="0 0 132 20" fill="none" xmlns="http://www.w3.org/2000/svg">
<path d="M0 0H132L121.917 10L132 20H0L11.0756 10L0 0Z" fill="#FD4F4F"/>
<path d="M21 5.5L21.8981 8.26393H24.8042L22.4531 9.97214L23.3511 12.7361L21 11.0279L18.6489 12.7361L19.5469 9.97214L17.1958 8.26393H20.1019L21 5.5Z" fill="white"/>
<path d="M27.7644 14V5.27273H31.2587C31.9007 5.27273 32.4363 5.3679 32.8652 5.55824C33.2942 5.74858 33.6167 6.01278 33.8326 6.35085C34.0485 6.68608 34.1564 7.07244 34.1564 7.50994C34.1564 7.85085 34.0882 8.15057 33.9519 8.40909C33.8155 8.66477 33.628 8.875 33.3894 9.03977C33.1536 9.2017 32.8837 9.31676 32.5797 9.38494V9.47017C32.9121 9.48437 33.2232 9.57812 33.513 9.75142C33.8056 9.92472 34.0428 10.1676 34.2246 10.4801C34.4064 10.7898 34.4973 11.1591 34.4973 11.5881C34.4973 12.0511 34.3823 12.4645 34.1522 12.8281C33.9249 13.1889 33.5882 13.4744 33.1422 13.6847C32.6962 13.8949 32.1465 14 31.4931 14H27.7644ZM29.6096 12.4915H31.1138C31.628 12.4915 32.003 12.3935 32.2388 12.1974C32.4746 11.9986 32.5925 11.7344 32.5925 11.4048C32.5925 11.1634 32.5343 10.9503 32.4178 10.7656C32.3013 10.581 32.1351 10.4361 31.9192 10.331C31.7061 10.2259 31.4519 10.1733 31.1564 10.1733H29.6096V12.4915ZM29.6096 8.92472H30.9775C31.2303 8.92472 31.4547 8.88068 31.6507 8.79261C31.8496 8.7017 32.0059 8.57386 32.1195 8.40909C32.236 8.24432 32.2942 8.04688 32.2942 7.81676C32.2942 7.50142 32.182 7.24716 31.9576 7.05398C31.736 6.8608 31.4206 6.7642 31.0115 6.7642H29.6096V8.92472ZM35.698 14V5.27273H41.5787V6.79403H37.5431V8.87358H41.2761V10.3949H37.5431V12.4787H41.5957V14H35.698ZM47.78 7.78267C47.7459 7.43892 47.5996 7.17187 47.3411 6.98153C47.0826 6.79119 46.7317 6.69602 46.2885 6.69602C45.9874 6.69602 45.7331 6.73864 45.5257 6.82386C45.3184 6.90625 45.1593 7.02131 45.0485 7.16903C44.9405 7.31676 44.8865 7.48438 44.8865 7.67188C44.8809 7.82812 44.9135 7.96449 44.9846 8.08097C45.0584 8.19744 45.1593 8.2983 45.2871 8.38352C45.415 8.46591 45.5627 8.53835 45.7303 8.60085C45.8979 8.66051 46.0769 8.71165 46.2672 8.75426L47.0513 8.94176C47.432 9.02699 47.7814 9.14062 48.0996 9.28267C48.4178 9.42472 48.6934 9.59943 48.9263 9.80682C49.1593 10.0142 49.3397 10.2585 49.4675 10.5398C49.5982 10.821 49.665 11.1435 49.6678 11.5071C49.665 12.0412 49.5286 12.5043 49.2587 12.8963C48.9917 13.2855 48.6053 13.5881 48.0996 13.804C47.5968 14.017 46.9902 14.1236 46.28 14.1236C45.5755 14.1236 44.9618 14.0156 44.4391 13.7997C43.9192 13.5838 43.513 13.2642 43.2203 12.8409C42.9306 12.4148 42.7786 11.8878 42.7644 11.2599H44.5499C44.5698 11.5526 44.6536 11.7969 44.8013 11.9929C44.9519 12.1861 45.1522 12.3324 45.4022 12.4318C45.655 12.5284 45.9405 12.5767 46.2587 12.5767C46.5712 12.5767 46.8425 12.5312 47.0726 12.4403C47.3056 12.3494 47.486 12.223 47.6138 12.0611C47.7417 11.8991 47.8056 11.7131 47.8056 11.5028C47.8056 11.3068 47.7473 11.142 47.6309 11.0085C47.5172 10.875 47.3496 10.7614 47.128 10.6676C46.9093 10.5739 46.6408 10.4886 46.3226 10.4119L45.3723 10.1733C44.6365 9.99432 44.0556 9.71449 43.6294 9.33381C43.2033 8.95312 42.9917 8.44034 42.9945 7.79545C42.9917 7.26705 43.1323 6.8054 43.4164 6.41051C43.7033 6.01562 44.0968 5.70739 44.5968 5.4858C45.0968 5.2642 45.665 5.15341 46.3013 5.15341C46.949 5.15341 47.5144 5.2642 47.9973 5.4858C48.4831 5.70739 48.861 6.01562 49.1309 6.41051C49.4007 6.8054 49.54 7.26278 49.5485 7.78267H47.78ZM50.5765 6.79403V5.27273H57.7441V6.79403H55.0723V14H53.2484V6.79403H50.5765ZM66.4363 7.78267C66.4022 7.43892 66.2559 7.17187 65.9973 6.98153C65.7388 6.79119 65.388 6.69602 64.9448 6.69602C64.6436 6.69602 64.3894 6.73864 64.182 6.82386C63.9746 6.90625 63.8155 7.02131 63.7047 7.16903C63.5968 7.31676 63.5428 7.48438 63.5428 7.67188C63.5371 7.82812 63.5698 7.96449 63.6408 8.08097C63.7147 8.19744 63.8155 8.2983 63.9434 8.38352C64.0712 8.46591 64.2189 8.53835 64.3865 8.60085C64.5542 8.66051 64.7331 8.71165 64.9235 8.75426L65.7076 8.94176C66.0882 9.02699 66.4377 9.14062 66.7559 9.28267C67.074 9.42472 67.3496 9.59943 67.5826 9.80682C67.8155 10.0142 67.9959 10.2585 68.1238 10.5398C68.2544 10.821 68.3212 11.1435 68.324 11.5071C68.3212 12.0412 68.1848 12.5043 67.915 12.8963C67.6479 13.2855 67.2615 13.5881 66.7559 13.804C66.253 14.017 65.6465 14.1236 64.9363 14.1236C64.2317 14.1236 63.6181 14.0156 63.0953 13.7997C62.5755 13.5838 62.1692 13.2642 61.8766 12.8409C61.5868 12.4148 61.4348 11.8878 61.4206 11.2599H63.2061C63.226 11.5526 63.3098 11.7969 63.4576 11.9929C63.6081 12.1861 63.8084 12.3324 64.0584 12.4318C64.3113 12.5284 64.5968 12.5767 64.915 12.5767C65.2275 12.5767 65.4988 12.5312 65.7289 12.4403C65.9618 12.3494 66.1422 12.223 66.2701 12.0611C66.3979 11.8991 66.4618 11.7131 66.4618 11.5028C66.4618 11.3068 66.4036 11.142 66.2871 11.0085C66.1735 10.875 66.0059 10.7614 65.7843 10.6676C65.5655 10.5739 65.2971 10.4886 64.9789 10.4119L64.0286 10.1733C63.2928 9.99432 62.7118 9.71449 62.2857 9.33381C61.8596 8.95312 61.6479 8.44034 61.6507 7.79545C61.6479 7.26705 61.7885 6.8054 62.0726 6.41051C62.3596 6.01562 62.753 5.70739 63.253 5.4858C63.753 5.2642 64.3212 5.15341 64.9576 5.15341C65.6053 5.15341 66.1706 5.2642 66.6536 5.4858C67.1394 5.70739 67.5172 6.01562 67.7871 6.41051C68.057 6.8054 68.1962 7.26278 68.2047 7.78267H66.4363ZM69.5652 14V5.27273H75.4458V6.79403H71.4103V8.87358H75.1433V10.3949H71.4103V12.4787H75.4629V14H69.5652ZM76.9128 14V5.27273H78.758V12.4787H82.4995V14H76.9128ZM83.7214 14V5.27273H85.5666V12.4787H89.3081V14H83.7214ZM90.53 14V5.27273H96.4107V6.79403H92.3752V8.87358H96.1081V10.3949H92.3752V12.4787H96.4277V14H90.53ZM97.8777 14V5.27273H101.321C101.98 5.27273 102.542 5.39062 103.008 5.62642C103.477 5.85937 103.834 6.19034 104.078 6.61932C104.325 7.04545 104.449 7.54687 104.449 8.12358C104.449 8.70312 104.324 9.2017 104.074 9.61932C103.824 10.0341 103.461 10.3523 102.987 10.5739C102.515 10.7955 101.944 10.9062 101.274 10.9062H98.9686V9.4233H100.976C101.328 9.4233 101.621 9.375 101.854 9.27841C102.086 9.18182 102.26 9.03693 102.373 8.84375C102.49 8.65057 102.548 8.41051 102.548 8.12358C102.548 7.83381 102.49 7.58949 102.373 7.39062C102.26 7.19176 102.085 7.04119 101.849 6.93892C101.616 6.83381 101.322 6.78125 100.967 6.78125H99.7228V14H97.8777ZM102.591 10.0284L104.76 14H102.723L100.601 10.0284H102.591Z" fill="white"/>
<path d="M111 5.5L111.898 8.26393H114.804L112.453 9.97214L113.351 12.7361L111 11.0279L108.649 12.7361L109.547 9.97214L107.196 8.26393H110.102L111 5.5Z" fill="white"/>
</svg>
