<svg width="25" height="12" viewBox="0 0 25 12" fill="none" xmlns="http://www.w3.org/2000/svg">
<path fill-rule="evenodd" clip-rule="evenodd" d="M18.5443 2.47058L18.7247 0.529411C18.7247 0.35294 18.5443 0 17.8225 0H5.19151C5.01107 0 4.65018 0.141176 4.65018 0.705881H3.0262C2.9059 0.705881 2.66531 0.776469 2.66531 1.05882C2.66531 1.34117 2.9059 1.41176 3.0262 1.41176H8.43948C8.55978 1.41176 8.80037 1.48235 8.80037 1.7647C8.80037 2.04705 8.55978 2.11764 8.43948 2.11764H1.40221C1.34207 2.11764 1.22177 2.18823 1.22177 2.47058C1.22177 2.75293 1.34207 2.82352 1.40221 2.82352H7.35683C7.47712 2.82352 7.71771 2.89411 7.71771 3.17646C7.71771 3.45882 7.47712 3.5294 7.35683 3.5294H2.30443C2.18413 3.5294 1.94354 3.59999 1.94354 3.88234C1.94354 4.1647 2.18413 4.23528 2.30443 4.23528H8.80037C8.92066 4.23528 9.16125 4.34117 9.16125 4.7647C9.16125 5.18822 8.98081 5.29411 8.80037 5.29411H0.860886C0.74059 5.29411 0.5 5.36469 0.5 5.64705C0.5 5.9294 0.74059 5.99999 0.860886 5.99999H6.45461C6.57491 5.99999 6.8155 6.07057 6.8155 6.35293C6.8155 6.63528 6.57491 6.70587 6.45461 6.70587H4.46974C4.34945 6.70587 4.10886 6.81175 4.10886 7.23528V9.17645C4.10886 9.41174 4.21712 9.88233 4.65018 9.88233L6.27441 9.88233C6.27441 11.0519 7.24386 12 8.43973 12C9.6356 12 10.605 11.0519 10.605 9.88233H18.5435C18.5435 11.0519 19.513 12 20.7088 12C21.9047 12 22.8741 11.0519 22.8741 9.88233L23.2358 9.88233C23.5967 9.88233 24.3184 9.74115 24.3184 9.17645C24.3184 8.61174 24.4387 6.70587 24.4989 5.82352C24.559 4.94117 22.1531 2.82352 22.1531 2.82352C21.7922 2.47058 21.5035 2.47058 21.0705 2.47058H18.5443ZM8.44008 10.9413C9.03801 10.9413 9.52274 10.4673 9.52274 9.88251C9.52274 9.29774 9.03801 8.82369 8.44008 8.82369C7.84214 8.82369 7.35742 9.29774 7.35742 9.88251C7.35742 10.4673 7.84214 10.9413 8.44008 10.9413ZM21.7923 9.88251C21.7923 10.4673 21.3075 10.9413 20.7096 10.9413C20.1117 10.9413 19.627 10.4673 19.627 9.88251C19.627 9.29774 20.1117 8.82369 20.7096 8.82369C21.3075 8.82369 21.7923 9.29774 21.7923 9.88251ZM18.9055 3.17641V5.29405H23.2361L21.7925 3.52935C21.6722 3.4117 21.2873 3.17641 20.7099 3.17641H18.9055Z" fill="#1C1C28"/>
</svg>
