<svg width="73" height="73" viewBox="0 0 73 73" fill="none" xmlns="http://www.w3.org/2000/svg"><path d="m44.7 1.2 1.6 4.2 3.8-2.5 1 4.4 4-1.9.3 4.5 4.3-1.2-.4 4.5 4.5-.6-1.2 4.4 4.5.2-1.8 4.1 4.4.9-2.4 3.8 4.2 1.6-3 3.3 4 2.2-3.6 3 3.6 2.7-4 2.3 3.1 3.3-4.2 1.7 2.5 3.7-4.4 1 1.9 4-4.5.4 1.1 4.3-4.4-.4.5 4.5-4.4-1.2-.2 4.5-4.1-1.8-1 4.5-3.7-2.4-1.6 4.2-3.4-3-2.2 4-2.8-3.5-2.9 3.5-2.2-3.9-3.4 3-1.6-4.1-3.7 2.5-1-4.4-4.1 1.9-.3-4.5-4.3 1.2.4-4.5-4.4.5 1.1-4.3-4.5-.2 1.8-4.1-4.4-1 2.4-3.7-4.2-1.6 3-3.4-4-2.2L4 36.7.5 34l3.8-2.3-3-3.3 4.2-1.7L3 23l4.4-1-1.8-4.1 4.5-.3-1.2-4.3 4.4.4-.4-4.5 4.3 1.1.2-4.5 4.1 1.8 1-4.4 3.7 2.4 1.6-4.2 3.4 3 2.2-4L36.3 4 39 .4l2.2 3.9 3.4-3.1Z" fill="#FFF200"/><path d="m12.8 38-4.4-7.6 1.6-1 3.6 6.3 3.3-1.9.7 1.3-4.8 2.8Zm5.9-3.5L15.4 29l1.6-1 3.2 5.7-1.5 1Zm-3-6.8a1 1 0 0 1-.7.1.9.9 0 0 1-.6-1.1c0-.3.2-.5.4-.6.3-.1.5-.2.8-.1.2 0 .4.2.5.4.2.2.2.5.1.7 0 .3-.2.5-.4.6Zm5.8 5.2-3.3-5.7 1.5-.8.6 1c0-.5 0-.8.2-1.2.2-.3.4-.6.8-.8a2 2 0 0 1 1.2-.3c.4 0 .7.2 1 .4 0-.4 0-.8.2-1.1.2-.4.5-.7 1-1a2 2 0 0 1 1.5-.2c.5.2 1 .5 1.3 1.1l2.2 3.9-1.5.9-2-3.5c-.2-.4-.5-.5-.7-.6a1 1 0 0 0-.8.1 1 1 0 0 0-.5.7c0 .3 0 .5.2.8l2 3.5-1.6.9-2-3.6a1 1 0 0 0-.6-.5 1 1 0 0 0-.8.1 1 1 0 0 0-.4.4l-.1.6c0 .2 0 .4.2.6l2 3.4-1.6 1Zm9.5-5.5-3.3-5.6 1.6-1 3.2 5.7-1.5 1Zm-3-6.8a1 1 0 0 1-.7.1.9.9 0 0 1-.6-1.1c0-.3.2-.5.4-.6.3-.1.5-.2.8-.1.2 0 .4.2.6.4v.7c0 .3-.2.5-.4.6Zm5.5-2.2.7 1.2-3.4 2-.7-1.2 3.4-2Zm-3.4.2 1.6-1 3 5.3.3.3.3.1.3-.1a1.5 1.5 0 0 0 .4-.3l.9 1a5.1 5.1 0 0 1-.8.7l-1 .4c-.4 0-.7 0-1-.2-.3-.1-.6-.4-.8-.7L30 18.6ZM40.4 22c-.6.4-1.1.5-1.7.5-.5 0-1-.1-1.5-.4-.5-.3-1-.8-1.3-1.4-.3-.6-.5-1.1-.5-1.7 0-.6 0-1.1.3-1.6s.7-.9 1.3-1.2L38 16a2.7 2.7 0 0 1 2.3.6l1 1.2.2.4-4.8 2.7-.6-1 3.3-1.8c-.1-.3-.3-.4-.5-.6l-.6-.1c-.3 0-.5 0-.7.2-.3.1-.4.3-.6.5l-.1.7c0 .2 0 .5.2.7l.5 1 .6.6.7.2c.3 0 .5-.1.8-.3l.4-.3.3-.4v-.5l1.5-.8v1.2c0 .4-.2.7-.5 1.1l-1 1Zm5.7-3.3c-.4.3-.9.4-1.3.4-.5 0-1-.2-1.4-.6-.5-.3-.9-.8-1.3-1.4l-.6-1.8c0-.5 0-1 .3-1.4a2.5 2.5 0 0 1 1.8-1.3h.8l.6.4-1.6-2.9 1.5-.9 4.4 7.6-1.5.8-.6-.9v.7l-.4.7a2 2 0 0 1-.7.6Zm-.2-1.5c.3-.2.4-.4.5-.6l.1-.8c0-.3-.2-.7-.4-1l-.6-.8c-.3-.2-.5-.3-.8-.3l-.7.1c-.3.2-.5.4-.5.6-.1.3-.2.5-.1.8l.3 1 .7.8c.2.2.5.3.7.3l.8-.1Zm-23.3 24-.8-1.3 6.2-3.6.8 1.3-2.3 1.3 3.6 6.3-1.6.9-3.6-6.3-2.3 1.4Zm10.8 2L30 37.8l1.6-1 3.3 5.8-1.6.9Zm-3-6.8a1 1 0 0 1-.7.1.9.9 0 0 1-.5-.4.9.9 0 0 1-.1-.7c0-.3.2-.4.5-.6.2-.1.4-.2.7 0 .3 0 .4.1.6.3v.7c0 .3-.2.5-.4.6Zm5.8 5.2L33 36.1l1.5-1 .6 1c0-.3 0-.7.2-1 .2-.4.5-.7.9-1a2 2 0 0 1 1.1-.2c.4 0 .7.2 1 .5 0-.5 0-.8.2-1.2.2-.4.5-.7 1-1a2 2 0 0 1 1.5-.2c.6.2 1 .5 1.4 1.2l2.2 3.8-1.6.9-2-3.5c-.2-.3-.4-.5-.7-.6a1 1 0 0 0-.8.1 1 1 0 0 0-.5.7c0 .3 0 .6.2.8l2 3.5-1.5.9-2-3.5a1 1 0 0 0-.7-.6 1 1 0 0 0-.8.1 1 1 0 0 0-.3.4l-.2.6.2.6 2 3.4-1.6 1ZM48.3 35c-.5.3-1.1.5-1.7.5-.5 0-1-.2-1.5-.5s-.9-.7-1.2-1.3c-.4-.6-.6-1.2-.6-1.8 0-.5.1-1 .4-1.5.2-.5.6-1 1.2-1.2.4-.3.8-.4 1.2-.5a2.7 2.7 0 0 1 2.2.7c.3.2.7.6 1 1.1l.2.4-4.8 2.8-.6-1 3.3-1.9c0-.2-.3-.4-.5-.5l-.6-.2c-.2 0-.5 0-.7.2l-.5.5-.2.7c0 .3 0 .5.2.7l.5 1 .6.6.7.2c.3 0 .5 0 .8-.2l.4-.4.3-.4v-.5l1.5-.7c.1.3.2.7 0 1.1 0 .4-.2.8-.4 1.1-.3.4-.7.7-1.2 1Zm-10 18c.4.8.7 1.5.7 2.3 0 .8-.1 1.4-.5 2-.3.7-.9 1.2-1.5 1.6-.7.3-1.4.5-2.1.5-.7 0-1.4-.2-2-.6a5 5 0 0 1-1.7-1.8 5 5 0 0 1-.8-2.4c0-.7.2-1.4.5-2 .4-.6 1-1.1 1.6-1.5a3.7 3.7 0 0 1 4.1 0 5 5 0 0 1 1.7 1.8Zm-1.7.9c-.3-.6-.6-1-1-1.2-.3-.3-.7-.5-1.1-.5a2 2 0 0 0-1.2.3 2 2 0 0 0-.8.9c-.2.3-.3.7-.2 1.2 0 .4.2 1 .5 1.5s.7 1 1 1.2c.4.3.8.4 1.2.4.4 0 .8 0 1.2-.3l.8-.8c.2-.4.2-.8.2-1.2 0-.5-.2-1-.6-1.5Zm4.8-5.3.7 1.2-3.5 2-.7-1.2 3.5-2Zm.6 7.2-3.6-6-.3-1.2c0-.4.1-.7.3-1l.8-.7a4.2 4.2 0 0 1 1.2-.5l.4 1.3a2.3 2.3 0 0 0-.5.2c-.2.2-.4.3-.4.5l.1.5 3.5 6-1.5 1Zm3.4-9.5.7 1.2-3.5 2-.7-1.2 3.5-2Zm.6 7.2-3.5-6c-.3-.5-.4-.9-.4-1.2 0-.4.1-.7.3-1 .2-.3.5-.6.9-.8a4.2 4.2 0 0 1 1.2-.4l.4 1.3a2.3 2.3 0 0 0-.6.2l-.4.4.1.6 3.5 6-1.5 1Zm6-3.4c-.5.4-1 .6-1.6.6-.6 0-1.1-.2-1.6-.5s-.9-.7-1.2-1.3c-.4-.6-.5-1.2-.6-1.8 0-.5.1-1 .4-1.6l1.2-1.2 1.2-.4a2.7 2.7 0 0 1 2.2.6c.4.3.7.7 1 1.2l.2.4-4.8 2.8-.5-1 3.3-2-.5-.4c-.2-.2-.5-.2-.7-.2-.2 0-.4 0-.7.2l-.5.5-.2.7c0 .3 0 .5.2.7l.5 1 .6.6.7.2c.3 0 .6 0 .8-.2l.5-.4.2-.4v-.5l1.5-.8c.2.4.2.8.1 1.2 0 .4-.2.8-.5 1.1l-1.1 1Zm3.6-2.2-3.2-5.6 1.5-1 .6 1v-1c.2-.4.4-.6.8-.8a2.7 2.7 0 0 1 .5-.2l.8 1.4h-.4l-.3.3c-.3 0-.4.3-.6.5a1.3 1.3 0 0 0 0 1.3l1.9 3.2-1.6 1Z" fill="#3A3A3A"/></svg>