<svg width="38" height="20" viewBox="0 0 38 20" fill="none" xmlns="http://www.w3.org/2000/svg">
<g clip-path="url(#clip0_1229_882)">
<path d="M24.5 9C24.5 9 22 8 19 8C16 8 13.5 9 13.5 9L9.5 2.5C9.5 2.5 14 0 19 0C24 0 28.5 2.5 28.5 2.5L24.5 9Z" fill="#FFCF00"/>
<path d="M30.2623 19.4467C30.2623 19.4467 30.2623 12 25.5 9.5C29.5 3 29.5 3 29.5 3C29.5 3 37.9961 8.99998 37.9961 19.4467H30.2623Z" fill="#A3E900"/>
<path d="M7.73375 19.4467C7.73375 19.4467 7.73375 12 12.4961 9.5C8.49609 3 8.49609 3 8.49609 3C8.49609 3 4.1008e-05 8.99998 4.1008e-05 19.4467H7.73375Z" fill="#FF800B"/>
<path d="M19.2858 19.8932C19.4909 19.8154 19.6789 19.6968 19.8387 19.5444L35.8853 17.4357L19.5697 16.8509C19.3286 16.7014 19.0543 16.6167 18.7724 16.6049C18.4905 16.5932 18.2103 16.6546 17.9581 16.7835C17.7059 16.9125 17.4899 17.1046 17.3305 17.342C17.171 17.5794 17.0733 17.8542 17.0466 18.1407C17.0198 18.4271 17.0648 18.7158 17.1775 18.9796C17.2901 19.2434 17.4666 19.4737 17.6904 19.6489C17.9142 19.8241 18.178 19.9384 18.457 19.9812C18.736 20.0239 19.0211 19.9936 19.2854 19.8932H19.2858Z" fill="#1C1C28"/>
</g>
<defs>
<clipPath id="clip0_1229_882">
<rect width="38" height="20" fill="white"/>
</clipPath>
</defs>
</svg>
