<svg width="348" height="22" viewBox="0 0 348 22" fill="none" xmlns="http://www.w3.org/2000/svg">
<path d="M1.38494 16V5.81818H8.24574V7.59304H3.53764V10.0192H7.89276V11.794H3.53764V14.2251H8.26562V16H1.38494ZM11.6873 8.36364L13.0893 11.0334L14.5261 8.36364H16.6987L14.4863 12.1818L16.7583 16H14.5957L13.0893 13.3601L11.6078 16H9.42028L11.6873 12.1818L9.49982 8.36364H11.6873ZM21.1333 16.1491C20.3511 16.1491 19.6783 15.9834 19.1149 15.652C18.5547 15.3172 18.1239 14.8532 17.8223 14.2599C17.524 13.6667 17.3748 12.9839 17.3748 12.2116C17.3748 11.4295 17.5256 10.7434 17.8272 10.1534C18.1322 9.56013 18.5647 9.09777 19.1248 8.76633C19.685 8.43158 20.3511 8.2642 21.1234 8.2642C21.7896 8.2642 22.3729 8.38518 22.8734 8.62713C23.3739 8.86908 23.7699 9.20881 24.0616 9.64631C24.3533 10.0838 24.514 10.5975 24.5439 11.1875H22.5453C22.4889 10.8063 22.3398 10.4998 22.0978 10.2678C21.8592 10.0324 21.546 9.91477 21.1582 9.91477C20.8301 9.91477 20.5434 10.0043 20.2981 10.1832C20.0562 10.3589 19.8672 10.6158 19.7314 10.9538C19.5955 11.2919 19.5275 11.7012 19.5275 12.1818C19.5275 12.669 19.5938 13.0833 19.7264 13.4247C19.8623 13.7661 20.0529 14.0263 20.2981 14.2053C20.5434 14.3842 20.8301 14.4737 21.1582 14.4737C21.4002 14.4737 21.6172 14.424 21.8095 14.3246C22.005 14.2251 22.1658 14.081 22.2917 13.892C22.421 13.6998 22.5055 13.4695 22.5453 13.201H24.5439C24.5107 13.7843 24.3516 14.2981 24.0666 14.7422C23.7849 15.183 23.3954 15.5277 22.8983 15.7763C22.4011 16.0249 21.8128 16.1491 21.1333 16.1491ZM29.38 16.1491C28.5945 16.1491 27.9183 15.9901 27.3516 15.6719C26.7881 15.3504 26.3539 14.8963 26.049 14.3097C25.7441 13.7197 25.5916 13.022 25.5916 12.2166C25.5916 11.4311 25.7441 10.7417 26.049 10.1484C26.3539 9.55516 26.7831 9.0928 27.3366 8.76136C27.8935 8.42992 28.5464 8.2642 29.2955 8.2642C29.7992 8.2642 30.2682 8.34541 30.7024 8.50781C31.1399 8.6669 31.5211 8.9072 31.8459 9.22869C32.174 9.55019 32.4292 9.95455 32.6115 10.4418C32.7938 10.9257 32.8849 11.4924 32.8849 12.142V12.7237H26.4368V11.4112H30.8913C30.8913 11.1063 30.825 10.8362 30.6925 10.6009C30.5599 10.3655 30.3759 10.1816 30.1406 10.049C29.9086 9.91312 29.6385 9.84517 29.3303 9.84517C29.0088 9.84517 28.7237 9.91974 28.4751 10.0689C28.2299 10.2147 28.0376 10.4119 27.8984 10.6605C27.7592 10.9058 27.688 11.1792 27.6847 11.4808V12.7287C27.6847 13.1065 27.7543 13.433 27.8935 13.7081C28.036 13.9832 28.2365 14.1953 28.495 14.3445C28.7536 14.4936 29.0601 14.5682 29.4148 14.5682C29.6501 14.5682 29.8655 14.535 30.0611 14.4688C30.2566 14.4025 30.424 14.303 30.5632 14.1705C30.7024 14.0379 30.8085 13.8755 30.8814 13.6832L32.8402 13.8125C32.7408 14.2831 32.5369 14.6941 32.2287 15.0455C31.9238 15.3935 31.5294 15.6652 31.0455 15.8608C30.5649 16.053 30.0097 16.1491 29.38 16.1491ZM36.3849 5.81818V16H34.267V5.81818H36.3849ZM40.1994 5.81818V16H38.0815V5.81818H40.1994ZM45.3761 16.1491C44.5906 16.1491 43.9144 15.9901 43.3477 15.6719C42.7842 15.3504 42.35 14.8963 42.0451 14.3097C41.7402 13.7197 41.5877 13.022 41.5877 12.2166C41.5877 11.4311 41.7402 10.7417 42.0451 10.1484C42.35 9.55516 42.7792 9.0928 43.3327 8.76136C43.8896 8.42992 44.5425 8.2642 45.2915 8.2642C45.7953 8.2642 46.2643 8.34541 46.6985 8.50781C47.136 8.6669 47.5172 8.9072 47.842 9.22869C48.1701 9.55019 48.4253 9.95455 48.6076 10.4418C48.7899 10.9257 48.881 11.4924 48.881 12.142V12.7237H42.4329V11.4112H46.8874C46.8874 11.1063 46.8211 10.8362 46.6886 10.6009C46.556 10.3655 46.372 10.1816 46.1367 10.049C45.9047 9.91312 45.6346 9.84517 45.3263 9.84517C45.0049 9.84517 44.7198 9.91974 44.4712 10.0689C44.226 10.2147 44.0337 10.4119 43.8945 10.6605C43.7553 10.9058 43.6841 11.1792 43.6808 11.4808V12.7287C43.6808 13.1065 43.7504 13.433 43.8896 13.7081C44.0321 13.9832 44.2326 14.1953 44.4911 14.3445C44.7496 14.4936 45.0562 14.5682 45.4109 14.5682C45.6462 14.5682 45.8616 14.535 46.0572 14.4688C46.2527 14.4025 46.4201 14.303 46.5593 14.1705C46.6985 14.0379 46.8046 13.8755 46.8775 13.6832L48.8363 13.8125C48.7369 14.2831 48.533 14.6941 48.2248 15.0455C47.9199 15.3935 47.5254 15.6652 47.0415 15.8608C46.561 16.053 46.0058 16.1491 45.3761 16.1491ZM52.381 11.5852V16H50.2631V8.36364H52.2816V9.71094H52.3711C52.5401 9.26681 52.8235 8.91548 53.2212 8.65696C53.619 8.39512 54.1012 8.2642 54.668 8.2642C55.1983 8.2642 55.6606 8.38021 56.055 8.61222C56.4495 8.84422 56.756 9.17566 56.9748 9.60653C57.1935 10.0341 57.3029 10.5445 57.3029 11.1378V16H55.185V11.5156C55.1883 11.0483 55.069 10.6837 54.8271 10.4219C54.5851 10.1567 54.252 10.0241 53.8278 10.0241C53.5427 10.0241 53.2908 10.0855 53.0721 10.2081C52.8567 10.3307 52.6876 10.5097 52.565 10.745C52.4457 10.977 52.3844 11.2571 52.381 11.5852ZM63.0339 8.36364V9.95455H58.4352V8.36364H63.0339ZM59.4792 6.53409H61.5971V13.6534C61.5971 13.849 61.627 14.0014 61.6866 14.1108C61.7463 14.2169 61.8291 14.2914 61.9352 14.3345C62.0446 14.3776 62.1705 14.3991 62.313 14.3991C62.4125 14.3991 62.5119 14.3909 62.6113 14.3743C62.7108 14.3544 62.787 14.3395 62.84 14.3295L63.1731 15.9055C63.0671 15.9387 62.9179 15.9768 62.7257 16.0199C62.5334 16.0663 62.2998 16.0945 62.0247 16.1044C61.5143 16.1243 61.0668 16.0563 60.6824 15.9006C60.3012 15.7448 60.0046 15.5028 59.7924 15.1747C59.5803 14.8466 59.4759 14.4323 59.4792 13.9318V6.53409Z" fill="black"/>
<path d="M85.7965 4H73.2035C72.815 4 72.5 4.31496 72.5 4.70349V17.2965C72.5 17.685 72.815 18 73.2035 18H85.7965C86.185 18 86.5 17.685 86.5 17.2965V4.70349C86.5 4.31496 86.185 4 85.7965 4Z" fill="#00B679"/>
<path d="M85.6949 9.44995H81.0683L79.6423 5.05157L78.2037 9.44995H73.5771L77.3164 12.1688L75.8841 16.5672L79.6297 13.8483L83.3689 16.5672L81.9429 12.1688L85.6949 9.44995Z" fill="white"/>
<path d="M82.2727 13.2082L81.9495 12.2131L79.6426 13.8926L82.2727 13.2082Z" fill="#005128"/>
<path d="M101.797 4H89.2035C88.815 4 88.5 4.31496 88.5 4.70349V17.2965C88.5 17.685 88.815 18 89.2035 18H101.797C102.185 18 102.5 17.685 102.5 17.2965V4.70349C102.5 4.31496 102.185 4 101.797 4Z" fill="#00B679"/>
<path d="M101.689 9.45074H97.0688L95.6428 5.05237L94.2105 9.45074H89.584L93.3232 12.176L91.8909 16.5743L95.6365 13.8491L99.3757 16.5743L97.9498 12.176L101.689 9.45074Z" fill="white"/>
<path d="M98.2727 13.2027L97.9495 12.2077L95.6426 13.8872L98.2727 13.2027Z" fill="#005128"/>
<path d="M117.797 4H105.203C104.815 4 104.5 4.31496 104.5 4.70349V17.2965C104.5 17.685 104.815 18 105.203 18H117.797C118.185 18 118.5 17.685 118.5 17.2965V4.70349C118.5 4.31496 118.185 4 117.797 4Z" fill="#00B679"/>
<path d="M117.689 9.45074H113.062L111.636 5.05237L110.204 9.45074H105.584L109.323 12.176L107.891 16.5743L111.63 13.8491L115.369 16.5743L113.95 12.176L117.689 9.45074Z" fill="white"/>
<path d="M114.266 13.2027L113.949 12.2077L111.636 13.8872L114.266 13.2027Z" fill="#005128"/>
<path d="M133.797 4H121.203C120.815 4 120.5 4.31496 120.5 4.70349V17.2965C120.5 17.685 120.815 18 121.203 18H133.797C134.185 18 134.5 17.685 134.5 17.2965V4.70349C134.5 4.31496 134.185 4 133.797 4Z" fill="#00B679"/>
<path d="M133.688 9.45074H129.062L127.642 5.05237L126.21 9.45074H121.583L125.322 12.176L123.884 16.5616L127.623 13.8364L131.368 16.5616L129.942 12.1633L133.688 9.45074Z" fill="white"/>
<path d="M130.273 13.2027L129.95 12.2077L127.643 13.8872L130.273 13.2027Z" fill="#005128"/>
<path d="M149.797 4H137.203C136.815 4 136.5 4.31496 136.5 4.70349V17.2965C136.5 17.685 136.815 18 137.203 18H149.797C150.185 18 150.5 17.685 150.5 17.2965V4.70349C150.5 4.31496 150.185 4 149.797 4Z" fill="url(#paint0_linear_1229_819)"/>
<path d="M149.694 9.45074H145.068L143.642 5.05237L142.21 9.45074H137.583L141.322 12.176L139.89 16.5743L143.636 13.8491L147.375 16.5743L145.949 12.176L149.694 9.45074Z" fill="white"/>
<path d="M146.272 13.2027L145.949 12.2077L143.642 13.8872L146.272 13.2027Z" fill="#005128"/>
<path d="M162.935 16.1392C162.517 16.1326 162.099 16.053 161.682 15.9006C161.264 15.7481 160.883 15.4912 160.538 15.13C160.194 14.7654 159.917 14.2732 159.708 13.6534C159.499 13.0303 159.395 12.2481 159.395 11.3068C159.395 10.4053 159.479 9.60653 159.648 8.91051C159.817 8.21117 160.063 7.62287 160.384 7.1456C160.706 6.66501 161.094 6.30043 161.548 6.05185C162.005 5.80327 162.52 5.67898 163.094 5.67898C163.664 5.67898 164.171 5.79332 164.615 6.02202C165.063 6.2474 165.427 6.56226 165.709 6.96662C165.991 7.37098 166.173 7.83665 166.256 8.36364H165.043C164.93 7.90625 164.711 7.52675 164.386 7.22514C164.062 6.92353 163.631 6.77273 163.094 6.77273C162.305 6.77273 161.683 7.11577 161.229 7.80185C160.779 8.48793 160.552 9.45076 160.548 10.6903H160.628C160.813 10.4086 161.034 10.1683 161.289 9.96946C161.548 9.76728 161.833 9.61151 162.144 9.50213C162.456 9.39276 162.786 9.33807 163.134 9.33807C163.717 9.33807 164.25 9.4839 164.734 9.77557C165.218 10.0639 165.606 10.4633 165.898 10.9737C166.189 11.4808 166.335 12.0625 166.335 12.7188C166.335 13.3485 166.194 13.9252 165.913 14.4489C165.631 14.9692 165.235 15.3835 164.724 15.6918C164.217 15.9967 163.621 16.1458 162.935 16.1392ZM162.935 15.0455C163.352 15.0455 163.727 14.9411 164.058 14.7322C164.393 14.5234 164.656 14.2434 164.849 13.892C165.044 13.5407 165.142 13.1496 165.142 12.7188C165.142 12.2978 165.048 11.915 164.859 11.5703C164.673 11.2223 164.416 10.9455 164.088 10.7401C163.763 10.5346 163.392 10.4318 162.974 10.4318C162.66 10.4318 162.366 10.4948 162.094 10.6207C161.823 10.7434 161.584 10.9124 161.379 11.1278C161.176 11.3433 161.017 11.5902 160.901 11.8686C160.785 12.1437 160.727 12.4337 160.727 12.7386C160.727 13.143 160.822 13.5208 161.011 13.8722C161.203 14.2235 161.465 14.5069 161.796 14.7223C162.131 14.9377 162.51 15.0455 162.935 15.0455ZM171.532 5.67898C171.949 5.68229 172.367 5.76184 172.785 5.91761C173.202 6.07339 173.583 6.33191 173.928 6.69318C174.273 7.05114 174.55 7.54001 174.758 8.1598C174.967 8.77959 175.072 9.55682 175.072 10.4915C175.072 11.3963 174.985 12.2 174.813 12.9027C174.644 13.602 174.399 14.192 174.077 14.6726C173.759 15.1532 173.371 15.5178 172.914 15.7663C172.46 16.0149 171.946 16.1392 171.373 16.1392C170.803 16.1392 170.294 16.0265 169.846 15.8011C169.402 15.5724 169.038 15.2559 168.753 14.8516C168.471 14.4439 168.29 13.9716 168.211 13.4347H169.424C169.533 13.902 169.75 14.2881 170.075 14.593C170.403 14.8946 170.836 15.0455 171.373 15.0455C172.158 15.0455 172.778 14.7024 173.232 14.0163C173.689 13.3303 173.918 12.3608 173.918 11.108H173.839C173.653 11.3864 173.433 11.6267 173.177 11.8288C172.922 12.031 172.639 12.1868 172.327 12.2962C172.016 12.4055 171.684 12.4602 171.333 12.4602C170.75 12.4602 170.214 12.3161 169.727 12.0277C169.243 11.736 168.855 11.3366 168.564 10.8295C168.275 10.3191 168.131 9.7358 168.131 9.07955C168.131 8.45644 168.27 7.88636 168.549 7.36932C168.831 6.84896 169.225 6.43466 169.732 6.12642C170.242 5.81818 170.842 5.66903 171.532 5.67898ZM171.532 6.77273C171.114 6.77273 170.738 6.87713 170.403 7.08594C170.072 7.29143 169.808 7.56984 169.613 7.92116C169.421 8.26918 169.324 8.6553 169.324 9.07955C169.324 9.50379 169.417 9.88991 169.603 10.2379C169.792 10.5826 170.049 10.8577 170.373 11.0632C170.702 11.2654 171.074 11.3665 171.492 11.3665C171.807 11.3665 172.1 11.3052 172.372 11.1825C172.644 11.0566 172.881 10.8859 173.083 10.6705C173.288 10.4517 173.449 10.2048 173.565 9.92969C173.681 9.65128 173.739 9.36127 173.739 9.05966C173.739 8.66193 173.643 8.28906 173.451 7.94105C173.262 7.59304 173 7.31132 172.665 7.09588C172.334 6.88044 171.956 6.77273 171.532 6.77273ZM180.467 16.1392C179.811 16.1392 179.226 16.0265 178.712 15.8011C178.202 15.5758 177.796 15.2625 177.494 14.8615C177.196 14.4571 177.033 13.9882 177.007 13.4545H178.26C178.286 13.7827 178.399 14.0661 178.598 14.3047C178.797 14.54 179.057 14.7223 179.378 14.8516C179.7 14.9808 180.056 15.0455 180.447 15.0455C180.885 15.0455 181.272 14.9692 181.61 14.8168C181.949 14.6643 182.214 14.4522 182.406 14.1804C182.598 13.9086 182.694 13.5938 182.694 13.2358C182.694 12.8613 182.601 12.5315 182.416 12.2464C182.23 11.9581 181.958 11.7327 181.6 11.5703C181.243 11.4079 180.805 11.3267 180.288 11.3267H179.473V10.233H180.288C180.692 10.233 181.047 10.16 181.352 10.0142C181.66 9.86837 181.9 9.66288 182.073 9.39773C182.248 9.13258 182.336 8.82102 182.336 8.46307C182.336 8.11837 182.26 7.81842 182.108 7.56321C181.955 7.308 181.74 7.10914 181.461 6.96662C181.186 6.8241 180.861 6.75284 180.487 6.75284C180.136 6.75284 179.804 6.81747 179.493 6.94673C179.184 7.07268 178.932 7.25663 178.737 7.49858C178.541 7.73722 178.435 8.02557 178.419 8.36364H177.225C177.245 7.83002 177.406 7.36269 177.708 6.96165C178.009 6.55729 178.404 6.24242 178.891 6.01705C179.382 5.79167 179.92 5.67898 180.507 5.67898C181.136 5.67898 181.677 5.80658 182.127 6.06179C182.578 6.31368 182.925 6.64678 183.167 7.06108C183.408 7.47538 183.529 7.92282 183.529 8.40341C183.529 8.9768 183.379 9.46567 183.077 9.87003C182.779 10.2744 182.373 10.5545 181.859 10.7102V10.7898C182.502 10.8958 183.004 11.1693 183.365 11.6101C183.727 12.0476 183.907 12.5895 183.907 13.2358C183.907 13.7893 183.757 14.2865 183.455 14.7273C183.157 15.1648 182.749 15.5095 182.232 15.7614C181.715 16.0133 181.127 16.1392 180.467 16.1392ZM185.702 13.9119V12.8977L190.176 5.81818H190.912V7.3892H190.415L187.034 12.7386V12.8182H193.06V13.9119H185.702ZM190.495 16V13.6037V13.1314V5.81818H191.668V16H190.495ZM198.881 16V8.36364H200.014V9.51705H200.094C200.233 9.1392 200.485 8.83262 200.849 8.5973C201.214 8.36198 201.625 8.24432 202.082 8.24432C202.168 8.24432 202.276 8.24597 202.405 8.24929C202.535 8.2526 202.632 8.25758 202.699 8.2642V9.45739C202.659 9.44744 202.568 9.43253 202.425 9.41264C202.286 9.38944 202.139 9.37784 201.983 9.37784C201.612 9.37784 201.28 9.45573 200.988 9.61151C200.7 9.76397 200.471 9.97609 200.302 10.2479C200.137 10.5163 200.054 10.8229 200.054 11.1676V16H198.881ZM207.059 16.1591C206.323 16.1591 205.688 15.9967 205.155 15.6719C204.624 15.3438 204.215 14.8864 203.927 14.2997C203.642 13.7098 203.499 13.0237 203.499 12.2415C203.499 11.4593 203.642 10.7699 203.927 10.1733C204.215 9.57339 204.616 9.10606 205.13 8.77131C205.647 8.43324 206.25 8.2642 206.939 8.2642C207.337 8.2642 207.73 8.33049 208.118 8.46307C208.506 8.59564 208.858 8.81108 209.177 9.10938C209.495 9.40436 209.748 9.79545 209.937 10.2827C210.126 10.7699 210.221 11.3698 210.221 12.0824V12.5795H204.334V11.5653H209.028C209.028 11.1345 208.941 10.75 208.769 10.4119C208.6 10.0739 208.358 9.80705 208.043 9.61151C207.732 9.41596 207.364 9.31818 206.939 9.31818C206.472 9.31818 206.068 9.43419 205.726 9.66619C205.388 9.89489 205.128 10.1932 204.946 10.5611C204.764 10.929 204.672 11.3234 204.672 11.7443V12.4205C204.672 12.9972 204.772 13.486 204.971 13.8871C205.173 14.2848 205.453 14.5881 205.811 14.7969C206.169 15.0024 206.585 15.1051 207.059 15.1051C207.367 15.1051 207.645 15.062 207.894 14.9759C208.146 14.8864 208.363 14.7538 208.545 14.5781C208.728 14.3991 208.868 14.1771 208.968 13.9119L210.101 14.2301C209.982 14.6146 209.782 14.9527 209.5 15.2443C209.218 15.5327 208.87 15.758 208.456 15.9205C208.041 16.0795 207.576 16.1591 207.059 16.1591ZM218.017 8.36364L215.194 16H214L211.176 8.36364H212.449L214.557 14.4489H214.637L216.745 8.36364H218.017ZM219.566 16V8.36364H220.739V16H219.566ZM220.163 7.09091C219.934 7.09091 219.737 7.01302 219.571 6.85724C219.409 6.70147 219.327 6.5142 219.327 6.29545C219.327 6.0767 219.409 5.88944 219.571 5.73366C219.737 5.57789 219.934 5.5 220.163 5.5C220.391 5.5 220.587 5.57789 220.749 5.73366C220.915 5.88944 220.998 6.0767 220.998 6.29545C220.998 6.5142 220.915 6.70147 220.749 6.85724C220.587 7.01302 220.391 7.09091 220.163 7.09091ZM226.09 16.1591C225.354 16.1591 224.72 15.9967 224.186 15.6719C223.656 15.3438 223.246 14.8864 222.958 14.2997C222.673 13.7098 222.53 13.0237 222.53 12.2415C222.53 11.4593 222.673 10.7699 222.958 10.1733C223.246 9.57339 223.647 9.10606 224.161 8.77131C224.678 8.43324 225.281 8.2642 225.971 8.2642C226.368 8.2642 226.761 8.33049 227.149 8.46307C227.537 8.59564 227.89 8.81108 228.208 9.10938C228.526 9.40436 228.78 9.79545 228.969 10.2827C229.157 10.7699 229.252 11.3698 229.252 12.0824V12.5795H223.366V11.5653H228.059C228.059 11.1345 227.973 10.75 227.8 10.4119C227.631 10.0739 227.389 9.80705 227.074 9.61151C226.763 9.41596 226.395 9.31818 225.971 9.31818C225.503 9.31818 225.099 9.43419 224.758 9.66619C224.42 9.89489 224.159 10.1932 223.977 10.5611C223.795 10.929 223.704 11.3234 223.704 11.7443V12.4205C223.704 12.9972 223.803 13.486 224.002 13.8871C224.204 14.2848 224.484 14.5881 224.842 14.7969C225.2 15.0024 225.616 15.1051 226.09 15.1051C226.398 15.1051 226.677 15.062 226.925 14.9759C227.177 14.8864 227.394 14.7538 227.577 14.5781C227.759 14.3991 227.9 14.1771 227.999 13.9119L229.133 14.2301C229.013 14.6146 228.813 14.9527 228.531 15.2443C228.249 15.5327 227.901 15.758 227.487 15.9205C227.073 16.0795 226.607 16.1591 226.09 16.1591ZM232.767 16L230.44 8.36364H231.673L233.324 14.2102H233.403L235.034 8.36364H236.287L237.898 14.1903H237.977L239.628 8.36364H240.861L238.534 16H237.381L235.71 10.1335H235.591L233.92 16H232.767ZM247.821 10.0739L246.767 10.3722C246.701 10.1965 246.603 10.0258 246.474 9.86009C246.348 9.69105 246.175 9.55185 245.956 9.44247C245.738 9.3331 245.458 9.27841 245.116 9.27841C244.649 9.27841 244.26 9.38613 243.948 9.60156C243.64 9.81368 243.486 10.0838 243.486 10.4119C243.486 10.7036 243.592 10.9339 243.804 11.103C244.016 11.272 244.347 11.4129 244.798 11.5256L245.932 11.804C246.614 11.9697 247.123 12.2232 247.458 12.5646C247.793 12.9027 247.96 13.3385 247.96 13.8722C247.96 14.3097 247.834 14.7008 247.582 15.0455C247.334 15.3902 246.986 15.6619 246.538 15.8608C246.091 16.0597 245.57 16.1591 244.977 16.1591C244.198 16.1591 243.554 15.9901 243.043 15.652C242.533 15.3139 242.21 14.8201 242.074 14.1705L243.187 13.892C243.293 14.303 243.494 14.6113 243.789 14.8168C244.087 15.0223 244.477 15.125 244.957 15.125C245.504 15.125 245.938 15.009 246.26 14.777C246.585 14.5417 246.747 14.2599 246.747 13.9318C246.747 13.6667 246.654 13.4446 246.469 13.2656C246.283 13.0833 245.998 12.9474 245.613 12.858L244.341 12.5597C243.641 12.3939 243.128 12.1371 242.8 11.7891C242.475 11.4377 242.312 10.9986 242.312 10.4716C242.312 10.0407 242.433 9.65956 242.675 9.32812C242.921 8.99669 243.254 8.73651 243.675 8.54758C244.099 8.35866 244.579 8.2642 245.116 8.2642C245.872 8.2642 246.465 8.42992 246.896 8.76136C247.33 9.0928 247.639 9.5303 247.821 10.0739ZM256.766 16.1591C256.077 16.1591 255.472 15.995 254.951 15.6669C254.434 15.3388 254.03 14.8797 253.738 14.2898C253.45 13.6998 253.306 13.0104 253.306 12.2216C253.306 11.4261 253.45 10.7318 253.738 10.1385C254.03 9.54522 254.434 9.08452 254.951 8.75639C255.472 8.42827 256.077 8.2642 256.766 8.2642C257.455 8.2642 258.059 8.42827 258.576 8.75639C259.096 9.08452 259.5 9.54522 259.789 10.1385C260.08 10.7318 260.226 11.4261 260.226 12.2216C260.226 13.0104 260.08 13.6998 259.789 14.2898C259.5 14.8797 259.096 15.3388 258.576 15.6669C258.059 15.995 257.455 16.1591 256.766 16.1591ZM256.766 15.1051C257.29 15.1051 257.721 14.9709 258.059 14.7024C258.397 14.4339 258.647 14.081 258.809 13.6435C258.972 13.206 259.053 12.732 259.053 12.2216C259.053 11.7112 258.972 11.2356 258.809 10.7947C258.647 10.3539 258.397 9.99763 258.059 9.72585C257.721 9.45407 257.29 9.31818 256.766 9.31818C256.242 9.31818 255.811 9.45407 255.473 9.72585C255.135 9.99763 254.885 10.3539 254.723 10.7947C254.56 11.2356 254.479 11.7112 254.479 12.2216C254.479 12.732 254.56 13.206 254.723 13.6435C254.885 14.081 255.135 14.4339 255.473 14.7024C255.811 14.9709 256.242 15.1051 256.766 15.1051ZM263.191 11.4062V16H262.017V8.36364H263.151V9.55682H263.25C263.429 9.16903 263.701 8.85748 264.066 8.62216C264.43 8.38352 264.901 8.2642 265.477 8.2642C265.994 8.2642 266.447 8.37027 266.835 8.58239C267.222 8.79119 267.524 9.10938 267.74 9.53693C267.955 9.96117 268.063 10.4981 268.063 11.1477V16H266.889V11.2273C266.889 10.6274 266.734 10.16 266.422 9.82528C266.11 9.48722 265.683 9.31818 265.139 9.31818C264.765 9.31818 264.43 9.39938 264.135 9.56179C263.843 9.72419 263.613 9.96117 263.444 10.2727C263.275 10.5843 263.191 10.9621 263.191 11.4062Z" fill="black"/>
<path d="M293.5 9.11787H287.387L285.507 3L283.613 9.11787H277.5L282.444 12.8897L280.549 19L285.493 15.2282L290.443 19L288.535 12.8821L293.5 9.11787Z" fill="#00B67A"/>
<path d="M288.98 14.2621L288.536 12.8816L285.486 15.2126L288.98 14.2621Z" fill="#005128"/>
<path d="M295.5 8H302.633V9.2998H299.824V16.6381H298.309V9.2998H295.515L295.5 8ZM302.315 10.3842H303.633V11.5949C303.682 11.4144 303.767 11.2453 303.883 11.0972C304 10.9284 304.146 10.7803 304.314 10.659C304.482 10.5187 304.674 10.4104 304.882 10.3396C305.079 10.2573 305.29 10.2143 305.503 10.2134H305.844C305.907 10.2206 305.97 10.2206 306.033 10.2134V11.5429L305.723 11.4909C305.617 11.4909 305.526 11.4909 305.42 11.4909C305.19 11.4926 304.963 11.5406 304.754 11.632C304.542 11.7254 304.354 11.8621 304.201 12.0331C304.033 12.231 303.905 12.4577 303.822 12.7016C303.724 12.999 303.676 13.31 303.678 13.6226V16.5935H302.27L302.315 10.3842ZM312.53 16.6381H311.13V15.7839C310.953 16.0961 310.691 16.3534 310.372 16.5267C310.056 16.7119 309.696 16.8118 309.327 16.8163C308.996 16.8468 308.663 16.8083 308.348 16.7034C308.034 16.5984 307.746 16.4293 307.502 16.2073C307.086 15.6811 306.884 15.0221 306.934 14.3579V10.3842H308.297V14.2242C308.253 14.6369 308.369 15.0509 308.623 15.3828C308.74 15.502 308.882 15.5948 309.038 15.6551C309.195 15.7154 309.364 15.7416 309.532 15.7319C309.792 15.7442 310.051 15.6958 310.289 15.5908C310.479 15.5144 310.646 15.3917 310.774 15.2343C310.903 15.0748 310.996 14.8899 311.046 14.6921C311.106 14.4716 311.134 14.2442 311.13 14.0162V10.3842H312.538L312.53 16.6381ZM314.916 14.6327C314.92 14.8013 314.964 14.9665 315.046 15.115C315.128 15.2634 315.244 15.3908 315.385 15.4868C315.681 15.6562 316.02 15.741 316.362 15.7319C316.512 15.7291 316.661 15.7167 316.809 15.6948C316.969 15.6735 317.126 15.6362 317.278 15.5834C317.419 15.5301 317.544 15.4433 317.642 15.3309C317.739 15.2086 317.785 15.0545 317.771 14.9001C317.765 14.7347 317.694 14.5778 317.574 14.4618C317.432 14.3483 317.274 14.2557 317.104 14.187C316.889 14.1133 316.669 14.0562 316.445 14.0162L315.688 13.8528C315.431 13.7934 315.173 13.7265 314.931 13.6448C314.696 13.5696 314.476 13.4566 314.28 13.3106C314.085 13.1731 313.927 12.9924 313.818 12.7833C313.692 12.537 313.632 12.2636 313.644 11.9885C313.63 11.6837 313.721 11.3831 313.901 11.1344C314.07 10.9038 314.29 10.7135 314.545 10.5773C314.818 10.4364 315.112 10.3363 315.416 10.2802C315.715 10.2249 316.019 10.1976 316.324 10.1985C316.64 10.1984 316.955 10.2333 317.263 10.3025C317.552 10.3625 317.827 10.476 318.073 10.6367C318.318 10.7887 318.523 10.9948 318.672 11.2384C318.842 11.5057 318.946 11.8084 318.975 12.1222H317.506C317.489 11.9835 317.439 11.8506 317.36 11.7344C317.281 11.6182 317.175 11.522 317.051 11.4537C316.789 11.3382 316.505 11.2799 316.218 11.2829L315.87 11.3275C315.739 11.3449 315.609 11.3747 315.484 11.4166C315.368 11.464 315.263 11.532 315.173 11.6172C315.088 11.7083 315.042 11.8279 315.044 11.9514C315.042 12.0274 315.056 12.1031 315.088 12.1726C315.119 12.2422 315.167 12.3037 315.226 12.3525C315.365 12.4686 315.524 12.5592 315.696 12.6199C315.91 12.6945 316.131 12.7516 316.355 12.7907L317.112 12.9541C317.369 13.0135 317.612 13.0804 317.869 13.1621C318.107 13.2356 318.329 13.3487 318.528 13.4963C318.72 13.6348 318.88 13.812 318.997 14.0162C319.115 14.2465 319.175 14.5012 319.171 14.7589C319.178 15.0953 319.083 15.426 318.899 15.7097C318.723 15.9628 318.496 16.1777 318.232 16.341C317.945 16.5047 317.633 16.6249 317.309 16.6975C316.983 16.7728 316.651 16.8126 316.317 16.8163C315.938 16.8208 315.561 16.7733 315.196 16.6752C314.877 16.5932 314.574 16.4575 314.302 16.2741C314.055 16.0951 313.856 15.8608 313.719 15.5908C313.564 15.292 313.483 14.9609 313.485 14.6253H314.916V14.6327ZM319.558 10.3842H320.625V8.49021H322.034V10.3693H323.306V11.3943H322.034V14.7367C322.034 14.8926 322.034 15.0041 322.034 15.1229C322.049 15.2129 322.077 15.3005 322.117 15.3828C322.169 15.4548 322.239 15.5114 322.322 15.5463C322.44 15.5896 322.566 15.6098 322.693 15.6057C322.791 15.6133 322.89 15.6133 322.988 15.6057C323.087 15.5987 323.186 15.5838 323.283 15.5611V16.6307L322.821 16.6826C322.67 16.6941 322.518 16.6941 322.367 16.6826C322.066 16.6909 321.765 16.6559 321.473 16.5787C321.275 16.5193 321.093 16.415 320.943 16.2741C320.814 16.1367 320.725 15.9672 320.686 15.7839C320.64 15.5561 320.612 15.3252 320.603 15.0932V11.3795H319.535V10.3842H319.558ZM324.29 10.3842H325.623V11.2384C325.806 10.8884 326.105 10.6104 326.471 10.451C326.832 10.2885 327.225 10.2073 327.622 10.2134C328.076 10.1962 328.528 10.2853 328.94 10.4733C329.307 10.644 329.626 10.8988 329.871 11.2161C330.122 11.5329 330.309 11.8932 330.424 12.2782C330.545 12.6989 330.609 13.1335 330.613 13.5706C330.612 13.9844 330.556 14.3964 330.447 14.7961C330.338 15.1704 330.167 15.5244 329.939 15.8433C329.715 16.1514 329.423 16.4053 329.084 16.5861C328.706 16.7735 328.288 16.8678 327.865 16.8609C327.659 16.8599 327.453 16.84 327.251 16.8015C327.048 16.7672 326.85 16.7099 326.661 16.6307C326.475 16.5516 326.301 16.4466 326.146 16.3187C325.987 16.1969 325.851 16.0485 325.744 15.8805V19H324.336V10.3842H324.29ZM329.228 13.5557C329.229 13.2789 329.189 13.0035 329.107 12.7387C329.04 12.4844 328.924 12.2449 328.766 12.0331C328.618 11.832 328.43 11.6627 328.213 11.5354C327.981 11.4123 327.72 11.3509 327.456 11.3572C327.2 11.3418 326.944 11.3879 326.711 11.4914C326.477 11.595 326.273 11.7528 326.115 11.9514C325.798 12.4295 325.642 12.9933 325.669 13.5631C325.663 13.8596 325.704 14.1552 325.79 14.4396C325.861 14.6914 325.979 14.9282 326.138 15.1377C326.293 15.3281 326.486 15.4849 326.706 15.5982C326.941 15.7143 327.201 15.7729 327.463 15.7691C327.746 15.7769 328.026 15.7102 328.274 15.576C328.487 15.4443 328.674 15.2757 328.826 15.0783C328.969 14.8628 329.072 14.6238 329.129 14.3727C329.192 14.1046 329.225 13.8307 329.228 13.5557ZM331.704 8.03714H333.112V9.33693H331.704V8.03714ZM331.704 10.4213H333.112V16.6752H331.704V10.4213ZM334.369 8.03714H335.778V16.6381H334.369V8.03714ZM340.102 16.8163C339.635 16.8245 339.171 16.7386 338.739 16.5638C338.361 16.4018 338.019 16.1698 337.732 15.8805C337.451 15.5785 337.24 15.2215 337.111 14.8332C336.959 14.4057 336.882 13.9563 336.883 13.5037C336.88 13.0558 336.957 12.6108 337.111 12.1891C337.243 11.8023 337.454 11.446 337.732 11.1418C338.012 10.8461 338.356 10.6152 338.739 10.4659C339.172 10.2947 339.635 10.2089 340.102 10.2134C340.572 10.2009 341.039 10.287 341.472 10.4659C341.854 10.6169 342.198 10.8476 342.479 11.1418C342.76 11.4438 342.971 11.8008 343.1 12.1891C343.251 12.6117 343.327 13.0561 343.328 13.5037C343.334 13.9567 343.257 14.407 343.1 14.8332C342.964 15.218 342.753 15.5736 342.479 15.8805C342.197 16.1761 341.854 16.4091 341.472 16.5638C341.036 16.7334 340.571 16.8192 340.102 16.8163ZM340.102 15.7171C340.373 15.7251 340.642 15.6652 340.883 15.543C341.124 15.4209 341.33 15.2405 341.48 15.0189C341.63 14.8034 341.743 14.565 341.813 14.3133C341.944 13.7863 341.944 13.236 341.813 12.709C341.744 12.459 341.631 12.2228 341.48 12.0108C341.331 11.8078 341.14 11.6381 340.92 11.5132C340.667 11.3841 340.386 11.3202 340.102 11.3275C339.819 11.3225 339.54 11.389 339.291 11.5206C339.069 11.6436 338.878 11.8136 338.731 12.0182C338.58 12.2302 338.467 12.4665 338.398 12.7164C338.267 13.2434 338.267 13.7937 338.398 14.3207C338.466 14.5733 338.579 14.8121 338.731 15.0263C338.879 15.2316 339.07 15.4037 339.291 15.5314C339.539 15.6663 339.819 15.7306 340.102 15.7171ZM343.752 10.3842H344.819V8.49021H346.228V10.3693H347.5V11.3943H346.228V14.7367C346.228 14.8926 346.228 15.0041 346.228 15.1229C346.239 15.2138 346.267 15.302 346.311 15.3828C346.36 15.4543 346.428 15.5109 346.508 15.5463C346.629 15.5895 346.758 15.6096 346.887 15.6057C346.985 15.6129 347.084 15.6129 347.182 15.6057C347.281 15.5975 347.38 15.5826 347.477 15.5611V16.6307L347.015 16.6826C346.864 16.6938 346.712 16.6938 346.561 16.6826C346.26 16.6909 345.959 16.6559 345.667 16.5787C345.469 16.5193 345.287 16.415 345.137 16.2741C345.008 16.1367 344.919 15.9672 344.88 15.7839C344.827 15.5573 344.799 15.3257 344.797 15.0932V11.3795H343.729V10.3842H343.752Z" fill="#191919"/>
<defs>
<linearGradient id="paint0_linear_1229_819" x1="136.585" y1="10.9513" x2="150.791" y2="10.9513" gradientUnits="userSpaceOnUse">
<stop offset="0.494213" stop-color="#00B679"/>
<stop offset="0.494903" stop-color="#DCDCE6"/>
</linearGradient>
</defs>
</svg>
