<svg width="18" height="18" viewBox="0 0 18 18" fill="none" xmlns="http://www.w3.org/2000/svg">
<path d="M9 17C10.0508 17.0014 11.0915 16.795 12.0622 16.3929C13.033 15.9908 13.9148 15.4008 14.6568 14.6568C15.4008 13.9148 15.9908 13.033 16.3929 12.0622C16.795 11.0915 17.0014 10.0508 17 9C17.0013 7.94923 16.795 6.90855 16.3929 5.93777C15.9908 4.96699 15.4008 4.08525 14.6568 3.3432C13.9148 2.59922 13.033 2.00921 12.0622 1.60708C11.0915 1.20496 10.0508 0.998645 9 1.00001C7.94923 0.998667 6.90855 1.20499 5.93777 1.60711C4.96699 2.00923 4.08525 2.59923 3.3432 3.3432C2.59923 4.08525 2.00923 4.96699 1.60711 5.93777C1.20499 6.90855 0.998667 7.94923 1.00001 9C0.998645 10.0508 1.20496 11.0915 1.60708 12.0622C2.00921 13.033 2.59922 13.9148 3.3432 14.6568C4.08525 15.4008 4.96699 15.9908 5.93777 16.3929C6.90855 16.795 7.94923 17.0013 9 17Z" stroke="#F00500" stroke-width="1.5" stroke-linejoin="round"/>
<path d="M9.41655 5.90828C9.41655 5.59749 9.16437 5.34531 8.85359 5.34531C8.5428 5.34531 8.29062 5.59749 8.29062 5.90828V10.5379C8.29062 10.6872 8.34994 10.8304 8.45551 10.936C8.56109 11.0416 8.70428 11.1009 8.85359 11.1009C9.00289 11.1009 9.14609 11.0416 9.25166 10.936C9.35724 10.8304 9.41655 10.6872 9.41655 10.5379V5.90828Z" fill="#F00500" stroke="#F00500" stroke-width="0.2"/>
<path d="M9.3739 13.4676C9.23498 13.6066 9.04657 13.6846 8.85012 13.6846C8.65366 13.6846 8.46525 13.6066 8.32633 13.4676C8.18742 13.3287 8.10938 13.1403 8.10938 12.9439C8.10938 12.7474 8.18742 12.559 8.32633 12.4201C8.46525 12.2812 8.65366 12.2031 8.85012 12.2031C9.04657 12.2031 9.23498 12.2812 9.3739 12.4201C9.51281 12.559 9.59086 12.7474 9.59086 12.9439C9.59086 13.1403 9.51281 13.3287 9.3739 13.4676Z" fill="#F00500"/>
<path d="M9.3739 13.4676C9.23498 13.6066 9.04657 13.6846 8.85012 13.6846C8.65366 13.6846 8.46525 13.6066 8.32633 13.4676C8.18742 13.3287 8.10938 13.1403 8.10938 12.9439C8.10938 12.7474 8.18742 12.559 8.32633 12.4201C8.46525 12.2812 8.65366 12.2031 8.85012 12.2031C9.04657 12.2031 9.23498 12.2812 9.3739 12.4201C9.51281 12.559 9.59086 12.7474 9.59086 12.9439C9.59086 13.1403 9.51281 13.3287 9.3739 13.4676Z" stroke="#F00500"/>
</svg>
