<svg width="1070" height="242" viewBox="0 0 1070 242" fill="none" xmlns="http://www.w3.org/2000/svg">
<path d="M138.887 82.3638C164.239 82.3638 184.981 102.431 184.981 126.954C184.981 195.141 92.7939 229.142 92.7939 230.999C92.7939 229.144 0.606689 195.328 0.606689 126.954C0.606689 102.245 21.3488 82.3638 46.7003 82.3638C72.2822 82.3638 92.7939 95.8897 92.7939 120.599C92.7939 95.8897 113.306 82.3638 138.887 82.3638Z" fill="url(#paint0_linear_48_30)"/>
<path d="M83.025 91.1838C82.0512 81.4385 79.2219 71.9696 74.6899 63.2876L66.0602 46.7558L81.5508 33.9307L91.8055 53.3603C96.5146 62.2827 99.3764 70.4271 101.284 80.334C101.834 83.1957 102.196 85.6319 102.501 88.53L105.924 121.058H86.0103L83.025 91.1838Z" fill="url(#paint1_linear_48_30)"/>
<path d="M107.756 73.8134C114.031 51.5718 130.704 33.7554 152.482 26.0209C154.159 25.4251 157.875 25.1471 157.875 25.8863C157.875 31.2154 158.456 51.6668 148.126 63.0993C136.642 75.8075 113.858 79.3014 107.934 79.3014C107.217 79.3014 107.264 75.5573 107.756 73.8134Z" fill="url(#paint2_linear_48_30)"/>
<path d="M218.742 42.2441H272.507C297.006 42.2441 314.77 45.7497 325.799 52.7607C336.906 59.693 342.46 70.7611 342.46 85.9648C342.46 96.2845 340.018 104.753 335.134 111.37C330.328 117.987 323.908 121.965 315.873 123.305V124.486C326.823 126.928 334.701 131.497 339.506 138.193C344.39 144.889 346.832 153.791 346.832 164.898C346.832 180.654 341.121 192.943 329.698 201.766C318.354 210.589 302.914 215 283.378 215H218.742V42.2441ZM255.373 110.661H276.643C286.568 110.661 293.737 109.125 298.148 106.053C302.639 102.98 304.884 97.8994 304.884 90.8096C304.884 84.1924 302.442 79.4658 297.558 76.6299C292.752 73.7152 285.111 72.2578 274.634 72.2578H255.373V110.661ZM255.373 139.729V184.75H279.242C289.326 184.75 296.77 182.82 301.575 178.96C306.381 175.1 308.783 169.192 308.783 161.235C308.783 146.898 298.542 139.729 278.061 139.729H255.373ZM367.964 48.7432C367.964 37.0055 374.502 31.1367 387.579 31.1367C400.656 31.1367 407.194 37.0055 407.194 48.7432C407.194 54.3363 405.54 58.7083 402.231 61.8594C399.002 64.9316 394.118 66.4678 387.579 66.4678C374.502 66.4678 367.964 60.5596 367.964 48.7432ZM405.54 215H369.5V82.8926H405.54V215ZM463.185 148.71C463.185 161.787 465.312 171.673 469.565 178.369C473.898 185.065 480.909 188.413 490.599 188.413C500.209 188.413 507.102 185.104 511.277 178.487C515.531 171.791 517.658 161.866 517.658 148.71C517.658 135.633 515.531 125.826 511.277 119.287C507.023 112.749 500.052 109.479 490.362 109.479C480.752 109.479 473.819 112.749 469.565 119.287C465.312 125.747 463.185 135.554 463.185 148.71ZM554.525 148.71C554.525 170.216 548.854 187.035 537.51 199.166C526.166 211.298 510.371 217.363 490.126 217.363C477.443 217.363 466.257 214.606 456.567 209.092C446.878 203.499 439.434 195.503 434.234 185.104C429.035 174.706 426.436 162.575 426.436 148.71C426.436 127.125 432.068 110.346 443.333 98.3721C454.598 86.3981 470.432 80.4111 490.835 80.4111C503.518 80.4111 514.704 83.1683 524.394 88.6826C534.083 94.1969 541.527 102.114 546.727 112.434C551.926 122.753 554.525 134.845 554.525 148.71Z" fill="url(#paint3_linear_48_30)"/>
<path d="M695.178 215H671.427L609.154 130.985L590.721 147.528V215H570.633V42.2441H590.721V128.386C595.211 123.265 599.819 118.184 604.546 113.143C609.272 108.022 613.96 102.862 618.607 97.6631L669.063 42.2441H692.578L623.807 117.16L695.178 215ZM756.722 83.1289C767.75 83.1289 777.203 85.571 785.081 90.4551C792.959 95.3392 798.985 102.193 803.16 111.016C807.335 119.76 809.423 130.001 809.423 141.738V153.909H719.973C720.209 169.113 723.99 180.693 731.316 188.649C738.643 196.606 748.962 200.584 762.275 200.584C770.468 200.584 777.715 199.836 784.018 198.339C790.32 196.842 796.858 194.636 803.633 191.722V208.974C797.094 211.888 790.595 214.015 784.136 215.354C777.755 216.694 770.192 217.363 761.448 217.363C749.002 217.363 738.131 214.842 728.835 209.801C719.618 204.68 712.45 197.197 707.329 187.35C702.209 177.503 699.648 165.45 699.648 151.191C699.648 137.248 701.972 125.195 706.62 115.033C711.347 104.792 717.964 96.9147 726.472 91.4004C735.058 85.8861 745.142 83.1289 756.722 83.1289ZM756.485 99.1992C746.008 99.1992 737.658 102.626 731.435 109.479C725.211 116.333 721.509 125.904 720.327 138.193H788.862C788.784 130.473 787.562 123.699 785.199 117.869C782.915 111.961 779.409 107.392 774.683 104.162C769.956 100.854 763.89 99.1992 756.485 99.1992ZM875.575 201.293C878.805 201.293 882.114 201.017 885.501 200.466C888.888 199.914 891.646 199.245 893.772 198.457V213.7C891.488 214.724 888.298 215.591 884.201 216.3C880.184 217.009 876.245 217.363 872.385 217.363C865.531 217.363 859.308 216.182 853.715 213.818C848.122 211.376 843.632 207.28 840.244 201.529C836.936 195.779 835.281 187.822 835.281 177.66V100.854H816.848V91.2822L835.399 83.6016L843.198 55.4785H855.015V85.4922H892.945V100.854H855.015V177.069C855.015 185.183 856.866 191.249 860.568 195.267C864.35 199.284 869.352 201.293 875.575 201.293ZM930.62 85.4922V215H911.005V85.4922H930.62ZM921.049 37.0449C924.279 37.0449 927.036 38.1084 929.32 40.2354C931.684 42.2835 932.865 45.5133 932.865 49.9248C932.865 54.2575 931.684 57.4873 929.32 59.6143C927.036 61.7412 924.279 62.8047 921.049 62.8047C917.661 62.8047 914.826 61.7412 912.541 59.6143C910.335 57.4873 909.232 54.2575 909.232 49.9248C909.232 45.5133 910.335 42.2835 912.541 40.2354C914.826 38.1084 917.661 37.0449 921.049 37.0449ZM994.055 148.71L949.271 85.4922H971.722L1005.87 135.357L1039.9 85.4922H1062.12L1017.33 148.71L1064.6 215H1042.15L1005.87 162.181L969.358 215H947.144L994.055 148.71Z" fill="url(#paint4_linear_48_30)"/>
<defs>
<linearGradient id="paint0_linear_48_30" x1="114.09" y1="230.999" x2="113.256" y2="119.602" gradientUnits="userSpaceOnUse">
<stop stop-color="#359D9E"/>
<stop offset="1" stop-color="#66AD7E"/>
</linearGradient>
<linearGradient id="paint1_linear_48_30" x1="76.7864" y1="40.9794" x2="109.843" y2="52.4753" gradientUnits="userSpaceOnUse">
<stop stop-color="#9EE5A6"/>
<stop offset="1" stop-color="#66AD7E"/>
</linearGradient>
<linearGradient id="paint2_linear_48_30" x1="107.39" y1="82.5716" x2="157.881" y2="19.4948" gradientUnits="userSpaceOnUse">
<stop stop-color="#BDB353"/>
<stop offset="1" stop-color="#E59149"/>
</linearGradient>
<linearGradient id="paint3_linear_48_30" x1="381.5" y1="34.5" x2="381.5" y2="214.5" gradientUnits="userSpaceOnUse">
<stop stop-color="#66AD7E"/>
<stop offset="1" stop-color="#42A195"/>
</linearGradient>
<linearGradient id="paint4_linear_48_30" x1="808.5" y1="0" x2="808.5" y2="242" gradientUnits="userSpaceOnUse">
<stop stop-color="#153339"/>
<stop offset="1" stop-color="#185D62"/>
</linearGradient>
</defs>
</svg>
