<svg width="18" height="18" viewBox="0 0 18 18" fill="none" xmlns="http://www.w3.org/2000/svg">
<path d="M9 17C10.0508 17.0014 11.0915 16.795 12.0622 16.3929C13.033 15.9908 13.9148 15.4008 14.6568 14.6568C15.4008 13.9148 15.9908 13.033 16.3929 12.0622C16.795 11.0915 17.0014 10.0508 17 9C17.0013 7.94923 16.795 6.90855 16.3929 5.93777C15.9908 4.96699 15.4008 4.08525 14.6568 3.3432C13.9148 2.59922 13.033 2.00921 12.0622 1.60708C11.0915 1.20496 10.0508 0.998645 9 1.00001C7.94923 0.998667 6.90855 1.20499 5.93777 1.60711C4.96699 2.00923 4.08525 2.59923 3.3432 3.3432C2.59923 4.08525 2.00923 4.96699 1.60711 5.93777C1.20499 6.90855 0.998667 7.94923 1.00001 9C0.998645 10.0508 1.20496 11.0915 1.60708 12.0622C2.00921 13.033 2.59922 13.9148 3.3432 14.6568C4.08525 15.4008 4.96699 15.9908 5.93777 16.3929C6.90855 16.795 7.94923 17.0013 9 17Z" stroke="#D21D19" stroke-width="1.5" stroke-linejoin="round"/>
<path d="M10.0721 8.97731L12.7538 6.27986C12.8861 6.13482 12.9576 5.944 12.9533 5.74722C12.9491 5.55044 12.8694 5.36292 12.731 5.22379C12.5926 5.08466 12.4061 5.00467 12.2105 5.00053C12.0149 4.9964 11.8252 5.06842 11.6811 5.20157L11.6818 5.20087L9.00018 7.89833L6.31853 5.20087C6.17435 5.06781 5.98464 4.99591 5.78902 5.00018C5.59339 5.00445 5.40696 5.08455 5.26865 5.22377C5.13033 5.36299 5.05082 5.55057 5.0467 5.74735C5.04259 5.94413 5.11419 6.13491 5.24656 6.27986L5.24587 6.27916L7.92752 8.97661L5.24587 11.6741C5.17042 11.7437 5.10976 11.828 5.06753 11.9218C5.02531 12.0156 5.0024 12.1171 5.00018 12.22C4.99796 12.323 5.01648 12.4254 5.05462 12.521C5.09276 12.6165 5.14973 12.7034 5.22211 12.7762C5.29449 12.8491 5.38078 12.9064 5.47578 12.9449C5.57077 12.9833 5.67252 13.002 5.77489 12.9998C5.87726 12.9977 5.97814 12.9747 6.07144 12.9323C6.16475 12.8899 6.24856 12.8289 6.31783 12.753L6.31853 12.7523L9.00018 10.0549L11.6818 12.7523C11.7511 12.8282 11.8348 12.8893 11.9281 12.9317C12.0214 12.9742 12.1222 12.9973 12.2246 12.9995C12.327 13.0017 12.4287 12.9831 12.5238 12.9447C12.6188 12.9064 12.7051 12.849 12.7775 12.7762C12.85 12.7034 12.907 12.6166 12.9452 12.5211C12.9834 12.4255 13.002 12.3232 12.9998 12.2202C12.9977 12.1172 12.9748 12.0158 12.9327 11.9219C12.8905 11.828 12.8299 11.7437 12.7545 11.6741L12.7538 11.6734L10.0721 8.97731Z" fill="#D21D19"/>
</svg>
