<svg width="16" height="16" viewBox="0 0 16 16" fill="none" xmlns="http://www.w3.org/2000/svg">
<g clip-path="url(#clip0_284_14336)">
<path d="M15.5131 6.27826C14.9112 5.29274 14.1521 4.41243 13.2657 3.67226L15.1324 1.80559C15.2538 1.67985 15.321 1.51145 15.3195 1.33666C15.318 1.16186 15.2479 0.994649 15.1243 0.871043C15.0007 0.747438 14.8335 0.677325 14.6587 0.675806C14.4839 0.674288 14.3155 0.741484 14.1897 0.862923L12.1597 2.89559C10.9013 2.14814 9.46267 1.75857 7.99906 1.76892C3.87172 1.76892 1.51972 4.59426 0.485058 6.27826C0.16541 6.79526 -0.00390625 7.39108 -0.00390625 7.99892C-0.00390625 8.60676 0.16541 9.20259 0.485058 9.71959C1.0869 10.7051 1.84605 11.5854 2.73239 12.3256L0.865724 14.1923C0.802051 14.2538 0.751263 14.3273 0.716323 14.4087C0.681384 14.49 0.662993 14.5775 0.662224 14.666C0.661455 14.7545 0.678323 14.8423 0.711843 14.9242C0.745364 15.0062 0.794866 15.0806 0.857461 15.1432C0.920056 15.2058 0.994491 15.2553 1.07642 15.2888C1.15835 15.3223 1.24614 15.3392 1.33466 15.3384C1.42318 15.3377 1.51066 15.3193 1.59199 15.2843C1.67333 15.2494 1.74689 15.1986 1.80839 15.1349L3.84306 13.1003C5.0999 13.8476 6.53684 14.2378 7.99906 14.2289C12.1264 14.2289 14.4784 11.4036 15.5131 9.71959C15.8327 9.20259 16.002 8.60676 16.002 7.99892C16.002 7.39108 15.8327 6.79526 15.5131 6.27826ZM1.62106 9.02159C1.43115 8.71429 1.33056 8.36017 1.33056 7.99892C1.33056 7.63767 1.43115 7.28356 1.62106 6.97626C2.51039 5.53226 4.52039 3.10226 7.99906 3.10226C9.10591 3.09606 10.1972 3.36281 11.1764 3.87892L9.83439 5.22092C9.19435 4.79599 8.427 4.60559 7.66255 4.68202C6.8981 4.75845 6.18364 5.09701 5.64039 5.64026C5.09715 6.1835 4.75859 6.89796 4.68215 7.66241C4.60572 8.42686 4.79613 9.19421 5.22106 9.83426L3.68106 11.3743C2.86446 10.7141 2.16762 9.91822 1.62106 9.02159ZM9.99906 7.99892C9.99906 8.52936 9.78834 9.03806 9.41327 9.41314C9.0382 9.78821 8.52949 9.99892 7.99906 9.99892C7.70207 9.99777 7.40919 9.9294 7.14239 9.79892L9.79906 7.14226C9.92953 7.40905 9.99791 7.70193 9.99906 7.99892ZM5.99906 7.99892C5.99906 7.46849 6.20977 6.95978 6.58484 6.58471C6.95992 6.20964 7.46863 5.99892 7.99906 5.99892C8.29605 6.00007 8.58893 6.06845 8.85572 6.19892L6.19906 8.85559C6.06858 8.58879 6.00021 8.29591 5.99906 7.99892ZM14.3771 9.02159C13.4877 10.4656 11.4777 12.8956 7.99906 12.8956C6.89221 12.9018 5.8009 12.635 4.82172 12.1189L6.16372 10.7769C6.80377 11.2019 7.57112 11.3923 8.33557 11.3158C9.10002 11.2394 9.81448 10.9008 10.3577 10.3576C10.901 9.81435 11.2395 9.09988 11.316 8.33543C11.3924 7.57098 11.202 6.80363 10.7771 6.16359L12.3171 4.62359C13.1337 5.28378 13.8305 6.07962 14.3771 6.97626C14.567 7.28356 14.6676 7.63767 14.6676 7.99892C14.6676 8.36017 14.567 8.71429 14.3771 9.02159Z" fill="#5A5B61"/>
</g>
<defs>
<clipPath id="clip0_284_14336">
<rect width="16" height="16" fill="white"/>
</clipPath>
</defs>
</svg>
