<svg width="321" height="318" viewBox="0 0 321 318" fill="none" xmlns="http://www.w3.org/2000/svg"><g clip-path="url(#a)"><path d="m241.3 31.3-4-8.3 16.2-14.4C266.3-2.7 283-2.9 294 8.1c10.6 10.5 10 28-1.5 40.2-5.7 6-11.8 11.8-19.7 19.7 15.8.8 29.4 0 42.8.5 3.1 3.6 1.7 7.3 1.4 10.8-5.4 5.2-12.3 4.7-18.6 4C271 79.6 248.5 87 234 112c6.5.8 14-.4 21.2.7 9.3 1.4 13.5 6 8.7 15.5-5.4 3.9-11.6 3.1-17.7 3.2h-67.8c-4.7 0-9.4-.1-14 .5-8.8 1.3-15.6 5.3-16 15-.2 9.2 5.6 14.6 13.9 17.4 6.3 2.2 13 1.5 19.6 1.5 9.4.1 18.9.6 28.2 0 15.2-1 26.6 3.4 36.9 15.7a89.3 89.3 0 0 0 52 29.3c6.4 1.3 13 1.8 18.2 6.7v9.2c-7.5 5-15.4 3.1-23.2 1.7a112 112 0 0 1-59.4-33.2 33 33 0 0 0-26.3-10.7c-12.6.4-25.4 1-38-1.5-5.3-1.1-10.3.5-14.5 3.7a187 187 0 0 0-31.2 30.5c-4.7 5.7-5.1 12.3.6 17.8 5.8 5.5 12.2 4.4 17.9-.2 10.6-8.6 19.5-19 29.3-28.4 4.4-4.3 8.4-8.9 13.3-12.6 3.6-2.7 7.6-4.5 11.5-1 4.5 4.2 2.9 8.7-.4 12.6-8.2 9.7-17.7 18.1-26.5 27.3-4 4-8.3 7.7-11.7 12.1-5.2 6.7-9.5 14.3-2.4 21.5 7.5 7.8 15.6 3.8 22.7-1.8 4.8-3.8 8.8-8.5 13.2-12.7 8.4-8.3 16.3-17 25-24.8 3.6-3 7.7-6.6 12.3-1.7 3.9 4.1 2.5 8.9-.6 12.8-8.5 10.7-19 19.5-28.3 29.4-4.3 4.4-9.2 8.2-12.3 13.5-3.4 5.6-4.5 12 .2 17 5.4 5.8 12 4.4 18 .6 4.9-3 8-7.9 12-11.9 3.2-3.2 6.8-7.8 11-.9 1 1.6 1.8 3.2 3 5.6L217.6 308a26.3 26.3 0 0 1-29.5 8 25.6 25.6 0 0 1-18.2-24.3c0-1.4-.3-2.8-.5-5-19.4-1.2-31.3-10.7-31.7-31-20.6-4.8-22.7-6.3-32.6-23.3-3.4.6-4.5 3.2-4.7 6-.3 4.2-.5 8.5 0 12.7 1 7.8-2 13.4-7.6 18.5-7.6 7-14.5 14.8-22 21.8a90.5 90.5 0 0 1-62.2 26c-1.4 0-2.8-.1-4.2-.4-.9-.2-1.6-.8-3.3-1.7-1.8-16.2-.5-33-.7-49.8-.1-4.9 4-7.2 7-10.1 18.4-18.7 37-37.3 55.6-56 2-2 4.5-3.4 5.4-7-2.2-3.6-7.1-3.1-10.3-5.7-13.1-10-16.4-27.4-5.5-39.6 11.8-13.3 25-25.4 37.6-38.1 2.1-2.2 4.2-1.3 6.4-.7 9.2 5.3 3.1 10.4-.6 14.7C87.8 132 78.7 140.3 70 149c-3 3-6.2 5.9-7.7 10-2.1 5.4-.8 10.2 3.3 14.2 3.7 3.6 8.1 4.4 13 2.6 4-1.5 7.3-4.4 10.2-7.3l84.8-84.8c-20.6-2.3-38.9-1.4-53.5 14.8-3.9 4.3-9.4 9.2-15 1-.6-2-2.4-3.7-.1-6.1 14.6-16 31.7-26 54.3-25.2 11.7.4 24.6 3.6 34.8-1.4 9.6-4.8 16.4-15.1 24.4-23 3-3 5.8-6.2 8.7-9.3l5.5 2.3c7.2 7 0 11.1-3.7 15-15.9 16.6-32.4 32.7-48.6 49-3.2 3.3-7.1 6-9.7 11 20.9 3 39 2.2 54-16.2 14.8-18.1 32.8-33.5 49.4-50.1 3-3 6-6 8.6-9.3 3.8-4.9 5.4-10 1.5-15.5-4.2-5.9-10.2-6-16.4-4-5.5 2-9.2 6.4-13.5 10-3.7 3-6.8 8.5-13 4.6Z" fill="#000001"/><path d="M229.3 286c-2.4-.6-4.6-2.9-7.1.5-3.7 4.8-7.7 9.4-12 13.8-7.3 7.4-18.8 8-25.1 1.8-6.3-6.4-6.1-17.9 1.1-25.3 11.4-11.9 23.3-23.3 34.8-35 3.2-3.3 7.5-5.8 8.9-10.6-.7-3-2.4-5-6-6.8l-38.6 38.4c-2.7 2.6-5.1 5.5-8.1 7.8-8 6-18.6 5.6-24.3-.8-6.3-7-6.5-16.2.3-24 5.5-6.4 11.8-12.2 17.9-18 9.3-9.3 18.7-18.4 27.5-27-1-4.5-2.9-6.4-5.5-7.6-1 .2-2.1.1-2.6.6l-39 38.8c-2.7 2.6-5.3 5.5-8.3 7.6-7.4 5-16 4-21.8-2-6-6-7.3-15.3-1.3-21.7a376.1 376.1 0 0 1 36.4-35.2c3.4-2.8 7.2-2.7 10.7-2.1 16 2.5 32 1.4 47.8 1.1 7.9 0 13 2.5 18.1 8.3 16.5 18.8 37 31.2 61.6 36.6 7.5 1.6 15 1.4 22.4 1.5l-.5 9c-12.9 17.6-31 23-51.9 22.7-15.7-.2-24.8 8.4-27 24-3.4-.3-5.6 2.4-8.4 3.5Z" fill="#4AADD9"/><path d="M317.1 217.6a110.6 110.6 0 0 1-65.5-25.3c-5.1-4.3-9.5-9.1-13.5-14.4-4.5-6-9.8-8.9-18-8.5-16.8.7-33.8 0-50.7.3-5.3 0-10.3-.7-14.9-3.1-8-4.3-12.9-14.3-11.1-22.2 2.3-10.4 8.8-16.2 19.4-17 1.4-.2 2.8-.1 4.2-.1 32 0 64 0 96 .2 2.4-3.1 3-8.2 8-8.6 15.4-1 31-5 45.9 3l.2 95.7Z" fill="#4DB5E3"/><path d="M105.2 99.5c1.6 1 3.2 1.8 5.5 3 9.6-7.3 16.9-18.2 30-21.3 13.2-3.1 26.1-1 39.3-1.9.5 4.5-3 5.9-5 7.9-27.7 28-55.6 55.8-83.5 83.7-2 2-3.9 4.1-6.1 5.8-8.3 6.4-17.8 5.8-24-1.2-6.2-7.1-6-16.3 1.2-24 6-6.5 12.4-12.7 18.9-18.8 6-5.9 12.3-11.5 16.3-15.1 2.2-6-.9-7.1-1.3-9.3 3.8-2 6.7-5 8.7-8.8Z" fill="#4AADD9"/><path d="M241.3 31.3c4.6 1.5 6.8-2 9.4-4.5 4-4 7.5-8.5 12-11.8 8.3-6.3 18.3-5.5 24.1 1.2 6.5 7.4 6.4 16-1.6 23.9-24.6 24.5-49.6 48.7-74.3 73a10 10 0 0 1-7.5 3.2h-41.6l73.8-73.1-2.8-6.3c3.5-.9 4.6-5.3 8.5-5.6Z" fill="#DDDDDB"/><path d="M317 121.9c-13.5 0-26.9.3-40.2-.2a16 16 0 0 0-13.9 5.7c1.1-3.2 1.4-6.4.4-10.3-12.5-2.3-25.6.2-38.9-1.4l32.7-33.5c3-3.1 6.7-2.9 10.4-2.9h49.3l.1 42.6Z" fill="#4AADD9"/><path d="M237.7 282.4c-.7-3-4.6-3.3-4.8-6.9l1.3-1.8c9.4-15 22-22 40.6-19.8 12 1.3 23.8-3.5 32.7-13 2.3-2.5 4.4-6.3 9-5.2l4.5 6.1a52.9 52.9 0 0 1-33.2 21.3c-3.6.8-7.5 1.9-11 1.4-15.8-2.3-27 4.3-35.5 16.8-.7 1.2-2.1 1.6-3.6 1.1Z" fill="#070808"/><path d="M10 306v-33.5c0-4 1.8-7.2 4.6-10 38.4-38 76.7-76.2 115-114.4.3-.2 1-.1 2.5-.3a39.8 39.8 0 0 0 13.2 26.6c-15.3 15.7-29.5 31.3-44.9 45.7-7.4 7-12 14.2-10 24.5 1.6 8.9-2 15.2-8.6 21-7.1 6-13.2 13.3-20.3 19.6A75.8 75.8 0 0 1 10 306Z" fill="#DDDDDB"/><path d="M235.3 56c2-2.8 4-5.3 7.4-6.5l9 8.4c-.4 4.9-3.3 6.8-7.1 8-4-2.4-7.5-5.4-9.3-10Z" fill="#1E1E1D"/><path d="m228.5 82.6-9.2-8.7c.9-4.4 3.5-6.2 6.3-8.2 4.8 1.2 7.2 5.2 10 8.8-.4 4-2.9 5.8-7 8.1Z" fill="#1F1F1E"/><path d="m269.1 43.8-6.9 6.5c-5-1.2-7-5.5-10.2-8.5-.3-4.1 2.4-5.8 5.7-7.7 4.4 1.5 6.5 5.8 11.4 9.7Z" fill="#171817"/><path d="m220.5 92.2-6.2 6.4a30 30 0 0 1-10.4-10c1-3.6 3-5.2 6.6-6.8 4 2.3 7.2 5.9 10 10.4Z" fill="#171717"/><path d="m196.6 114-8.7-9.3c.7-3.8 3.6-5.4 6.5-7.7l9.6 9c-.7 4.1-3 6-7.4 8Z" fill="#121212"/><path d="M82.4 248.1c-18.8 14.8-34.1 34.4-58 42-3.5-2.4-4.6-5.2-3.5-9.7 21.7-7.8 36.2-26.4 54.4-40 3.3 1.7 5.3 4.2 7 7.7Z" fill="#070707"/><path d="M126.1 166.8c3.7 2.7 7.2 5.6 9.6 10.5l-6.4 5.9a29.6 29.6 0 0 1-10.1-9.7c1.1-4 3.3-6 6.9-6.7Z" fill="#171717"/><path d="m101.5 188.7 6.9-7c5 2.3 7.6 6 10.6 9.2-.1 4-2.7 5.6-6 7.4-4.6-1.4-6.4-6-11.5-9.6Z" fill="#121212"/></g><defs><clipPath id="a"><path fill="#fff" d="M0 0h321v317.5H0z"/></clipPath></defs></svg>