<svg width="145" height="145" viewBox="0 0 145 145" fill="none" xmlns="http://www.w3.org/2000/svg">
<circle cx="72.5" cy="72.5" r="72.5" fill="#F69C24"/>
<circle cx="72.5" cy="72.5" r="69" stroke="white"/>
<circle cx="72.5" cy="72.5" r="65" stroke="white"/>
<circle cx="72.5" cy="72.5" r="61" stroke="white"/>
<circle cx="72.5" cy="72.5" r="57" stroke="white"/>
<path d="M58.3047 80.8916L65.7168 56.2969H73.2188L61.8311 89H54.8008L43.458 56.2969H50.9375L58.3047 80.8916ZM93.2764 80.4199C93.2764 79.1471 92.8271 78.1738 91.9287 77.5C91.0303 76.8112 89.4131 76.0924 87.0771 75.3438C84.7412 74.5801 82.8919 73.8314 81.5293 73.0977C77.8158 71.0911 75.959 68.3883 75.959 64.9893C75.959 63.2223 76.4531 61.6501 77.4414 60.2725C78.4447 58.8799 79.8747 57.7943 81.7314 57.0156C83.6032 56.237 85.6995 55.8477 88.0205 55.8477C90.3564 55.8477 92.4378 56.2744 94.2646 57.1279C96.0915 57.9665 97.5065 59.1569 98.5098 60.6992C99.528 62.2415 100.037 63.9935 100.037 65.9551H93.2988C93.2988 64.4577 92.8271 63.2972 91.8838 62.4736C90.9404 61.6351 89.6152 61.2158 87.9082 61.2158C86.2611 61.2158 84.9808 61.5677 84.0674 62.2715C83.154 62.9603 82.6973 63.8737 82.6973 65.0117C82.6973 66.0749 83.2288 66.9658 84.292 67.6846C85.3701 68.4033 86.9499 69.0771 89.0312 69.7061C92.8646 70.859 95.6572 72.2891 97.4092 73.9961C99.1611 75.7031 100.037 77.8294 100.037 80.375C100.037 83.2051 98.9665 85.4287 96.8252 87.0459C94.6839 88.6481 91.8014 89.4492 88.1777 89.4492C85.6621 89.4492 83.3711 88.9925 81.3047 88.0791C79.2383 87.1507 77.6585 85.8854 76.5654 84.2832C75.4873 82.681 74.9482 80.8242 74.9482 78.7129H81.709C81.709 82.3216 83.8652 84.126 88.1777 84.126C89.7799 84.126 91.0303 83.804 91.9287 83.1602C92.8271 82.5013 93.2764 81.5879 93.2764 80.4199Z" fill="white"/>
</svg>
